<svg width="100" height="100" viewBox="0 0 100 100" fill="none" xmlns="http://www.w3.org/2000/svg">
<g clip-path="url(#clip0)">
<path d="M27.0972 29.0665L56.9998 80.8594L66.5261 75.3594L36.6234 23.5665L27.0972 29.0665ZM23.4158 75.4838C25.7619 79.5474 29.8326 81.7978 33.6008 83.0809C37.4547 84.3931 41.7725 84.9651 45.7296 85.1508C49.7247 85.3383 53.6086 85.143 56.7201 84.7859C58.2752 84.6074 59.7001 84.3813 60.8925 84.123C61.8571 83.914 63.3332 83.5537 64.5129 82.8726L59.0129 73.3463C59.4784 73.0776 59.5431 73.1601 58.5632 73.3724C57.811 73.5354 56.7581 73.7093 55.4658 73.8576C52.8824 74.1541 49.5929 74.32 46.2452 74.1629C42.8595 74.004 39.6651 73.5256 37.1464 72.668C34.5421 71.7812 33.38 70.7424 32.9421 69.9838L23.4158 75.4838ZM69.1364 49.087C69.5744 49.8456 69.8929 51.3714 69.3588 54.0702C68.8421 56.6802 67.6593 59.6858 66.104 62.6974C64.5663 65.6752 62.7778 68.441 61.2293 70.53C60.4547 71.575 59.7777 72.4 59.2605 72.9698C58.5866 73.7123 58.5475 73.615 59.0129 73.3463L64.5129 82.8726C65.6927 82.1914 66.7427 81.0932 67.406 80.3624C68.226 79.4589 69.1342 78.3379 70.0663 77.0804C71.9313 74.5643 74.0425 71.2984 75.8777 67.7448C77.6954 64.2251 79.3589 60.1997 80.1494 56.206C80.9223 52.3011 81.0088 47.6505 78.6627 43.587L69.1364 49.087Z" fill="#222222"/>
<path fill-rule="evenodd" clip-rule="evenodd" d="M51.3799 55.1759L60.1062 70.2904C59.3301 69.89 58.579 69.4895 57.881 69.1173L57.8809 69.1172C57.0234 68.66 56.2459 68.2453 55.6001 67.926C53.0021 66.6414 51.0925 66.0336 49.2941 66.0825C47.6579 66.127 45.3864 66.7432 42.1985 69.4572C36.5662 74.2519 37.5398 79.4589 39.5792 81.8633C40.6496 83.1253 41.9828 83.6822 43.3064 83.5934C44.6181 83.5055 46.8989 82.705 49.5586 79.2756C51.4202 76.8753 54.8751 76.4387 57.2754 78.3003C59.6757 80.1619 60.1123 83.6168 58.2507 86.017C54.2215 91.2121 49.2931 94.2167 44.0424 94.5688C38.8037 94.9201 34.2215 92.5521 31.1905 88.9787C25.027 81.7122 25.0539 69.6062 35.068 61.0812C39.7032 57.1353 44.3012 55.2142 48.9952 55.0866C49.8115 55.0644 50.6067 55.0976 51.3799 55.1759Z" fill="#58A3C2"/>
<path d="M39.0582 49.7837L56.9998 80.8594L66.5261 75.3594L48.5845 44.2837L39.0582 49.7837ZM23.4158 75.4838C25.7619 79.5473 29.8326 81.7977 33.6008 83.0808C37.4547 84.3931 41.7725 84.9651 45.7296 85.1508C49.7247 85.3383 53.6086 85.1429 56.7201 84.7858C58.2752 84.6073 59.7001 84.3813 60.8925 84.1229C61.8571 83.9139 63.3332 83.5537 64.513 82.8725L59.013 73.3462C59.4784 73.0775 59.5431 73.16 58.5632 73.3724C57.811 73.5353 56.7581 73.7092 55.4658 73.8575C52.8824 74.1541 49.5929 74.32 46.2452 74.1629C42.8595 74.004 39.6651 73.5255 37.1464 72.6679C34.5421 71.7812 33.38 70.7424 32.9421 69.9838L23.4158 75.4838ZM69.1364 49.087C69.5744 49.8456 69.8929 51.3713 69.3588 54.0701C68.8421 56.6802 67.6593 59.6858 66.104 62.6974C64.5663 65.6751 62.7778 68.4409 61.2293 70.5299C60.4547 71.575 59.7777 72.3999 59.2605 72.9698C58.5866 73.7123 58.5475 73.615 59.013 73.3462L64.513 82.8725C65.6927 82.1914 66.7427 81.0932 67.406 80.3623C68.226 79.4588 69.1342 78.3379 70.0663 77.0804C71.9314 74.5643 74.0425 71.2984 75.8777 67.7448C77.6954 64.225 79.3589 60.1996 80.1494 56.206C80.9223 52.3011 81.0088 47.6505 78.6627 43.587L69.1364 49.087Z" fill="#222222"/>
<path fill-rule="evenodd" clip-rule="evenodd" d="M61.8236 69.1406C64.7145 70.2987 67.9906 71.5976 70.9522 72.2169C75.0725 73.0785 80.1427 72.984 84.2618 68.8748C86.2116 66.9296 87.5988 64.3596 87.4607 61.3374C87.3289 58.4513 85.8495 56.2406 84.4122 54.7831C81.6481 51.9801 77.5075 50.3307 74.1788 49.8078C70.5246 49.2338 68.9327 47.9606 68.2666 47.1107C70.58 46.552 72.3472 44.5234 72.4665 42.026C72.6115 38.9919 70.2693 36.4148 67.2352 36.2698C63.8333 36.1073 60.687 37.4888 58.7165 40.186C56.8328 42.7645 56.4383 45.9647 57.1186 48.8426C58.5312 54.8179 64.2105 59.3768 72.4717 60.6745C73.1972 60.7885 74.072 61.0471 74.8993 61.4288C75.0508 61.4986 75.193 61.5691 75.326 61.6392C74.8508 61.6938 74.1835 61.6547 73.2037 61.4498C71.2035 61.0315 69.0586 60.1764 66.2748 59.0666L66.2747 59.0666L66.2746 59.0665C65.4072 58.7207 64.4777 58.3501 63.4713 57.9604C60.6455 56.866 57.3064 55.6695 53.6902 55.0531L61.8236 69.1406ZM67.8049 46.1948C67.8051 46.1948 67.8053 46.198 67.8051 46.204C67.8047 46.1977 67.8048 46.1947 67.8049 46.1948ZM76.6904 62.632C76.6901 62.632 76.6859 62.6267 76.679 62.6162C76.6873 62.6267 76.6907 62.632 76.6904 62.632Z" fill="#D74A6C"/>
<path fill-rule="evenodd" clip-rule="evenodd" d="M56.4741 77.7824C56.7511 77.9291 57.0193 78.1016 57.2755 78.3003C59.6757 80.1619 60.1124 83.6168 58.2508 86.017C54.2216 91.2121 49.2932 94.2167 44.0425 94.5688C40.9119 94.7787 38.0158 94.0176 35.545 92.6085C37.6063 90.1962 40.519 86.8063 43.7851 83.534C45.1361 83.2921 47.1981 82.3192 49.5587 79.2756C50.3446 78.2623 51.4145 77.5989 52.5691 77.3107C53.9949 77.529 55.2932 77.6825 56.4741 77.7824Z" fill="#58A3C2"/>
<path fill-rule="evenodd" clip-rule="evenodd" d="M67.433 59.9129C68.328 57.8622 69.0021 55.8719 69.3588 54.0702C69.8929 51.3714 69.5744 49.8456 69.1364 49.087L78.6627 43.587C81.0088 47.6505 80.9223 52.3011 80.1494 56.206C80.1333 56.2873 80.1169 56.3686 80.1001 56.4499L78.5617 59.3617C78.4729 59.4882 78.3487 59.7456 78.2012 60.0511C77.9339 60.605 77.5902 61.3172 77.242 61.6953L67.433 59.9129Z" fill="#222222"/>
<path d="M57.6374 24.7693L17.9891 47.6603" stroke="#222222" stroke-width="11"/>
<ellipse cx="28.9179" cy="20.3952" rx="9.0739" ry="9.0739" transform="rotate(-30 28.9179 20.3952)" stroke="#222222" stroke-width="11"/>
</g>
<defs>
<clipPath id="clip0">
<rect width="100" height="100" fill="white"/>
</clipPath>
</defs>
</svg>
