<svg width="169" height="166" viewBox="0 0 169 166" fill="none" xmlns="http://www.w3.org/2000/svg">
<path d="M57.9717 53.7558L92.6597 113.837L102.186 108.337L67.498 48.2558L57.9717 53.7558ZM53.7012 107.601C56.27 112.051 60.7594 114.564 65.0376 116.021C69.4013 117.507 74.3203 118.163 78.8649 118.376C83.4475 118.591 87.9055 118.367 91.4726 117.958C93.2556 117.753 94.8787 117.495 96.2267 117.203C97.3469 116.96 98.9359 116.565 100.173 115.85L94.6729 106.324C95.0811 106.088 95.033 106.206 93.8974 106.452C92.9897 106.649 91.7385 106.855 90.2183 107.029C87.1792 107.378 83.3158 107.573 79.3805 107.388C75.4072 107.202 71.6118 106.639 68.5832 105.608C65.469 104.548 63.8882 103.246 63.2274 102.101L53.7012 107.601ZM106.739 76.9803C107.399 78.1247 107.736 80.1447 107.098 83.3719C106.476 86.5103 105.066 90.0786 103.241 93.6128C101.433 97.1131 99.3326 100.362 97.511 102.819C96.5998 104.048 95.7959 105.029 95.1717 105.717C94.3908 106.577 94.2646 106.56 94.6729 106.324L100.173 115.85C101.41 115.136 102.547 113.958 103.317 113.109C104.244 112.088 105.279 110.811 106.348 109.369C108.486 106.485 110.909 102.736 113.014 98.6601C115.102 94.6178 116.993 90.0298 117.888 85.5078C118.766 81.0744 118.834 75.9296 116.265 71.4803L106.739 76.9803Z" fill="#222222"/>
<mask id="mask0" mask-type="alpha" maskUnits="userSpaceOnUse" x="37" y="66" width="70" height="77">
<rect x="37.9765" y="88.5039" width="43.061" height="62.1993" transform="rotate(-30 37.9765 88.5039)" fill="#C4C4C4"/>
</mask>
<g mask="url(#mask0)">
<path d="M88.307 116.35C72.7882 136.36 52.4413 111.644 70.5916 96.1923C88.7419 80.741 98.0421 103.548 113.869 99.3823C129.696 95.217 128.256 78.3692 118.691 76.1567C109.127 73.9441 87.9945 86.1447 93.7737 64.5765" stroke="#58A3C2" stroke-width="11" stroke-linecap="round" stroke-linejoin="round"/>
</g>
<path d="M71.8469 77.7884L92.6597 113.837L102.186 108.337L81.3732 72.2884L71.8469 77.7884ZM53.7011 107.601C56.27 112.051 60.7594 114.564 65.0376 116.021C69.4013 117.507 74.3203 118.163 78.8649 118.376C83.4475 118.591 87.9054 118.367 91.4726 117.958C93.2556 117.753 94.8787 117.495 96.2267 117.203C97.3469 116.96 98.9359 116.565 100.173 115.85L94.6729 106.324C95.0811 106.088 95.0329 106.206 93.8974 106.452C92.9897 106.649 91.7385 106.855 90.2183 107.029C87.1792 107.378 83.3157 107.573 79.3805 107.388C75.4072 107.202 71.6118 106.639 68.5832 105.608C65.469 104.548 63.8882 103.246 63.2274 102.101L53.7011 107.601ZM106.739 76.9803C107.399 78.1247 107.736 80.1447 107.098 83.3719C106.476 86.5103 105.066 90.0785 103.241 93.6128C101.433 97.1131 99.3326 100.362 97.511 102.819C96.5998 104.048 95.7959 105.029 95.1717 105.717C94.3908 106.577 94.2646 106.56 94.6729 106.324L100.173 115.85C101.41 115.136 102.547 113.958 103.317 113.109C104.244 112.088 105.279 110.811 106.348 109.369C108.486 106.485 110.909 102.736 113.014 98.6601C115.102 94.6178 116.993 90.0298 117.888 85.5077C118.766 81.0744 118.834 75.9296 116.265 71.4803L106.739 76.9803Z" fill="#222222"/>
<mask id="mask1" mask-type="alpha" maskUnits="userSpaceOnUse" x="75" y="46" width="60" height="69">
<rect width="33.4919" height="59.3285" transform="matrix(-0.866025 0.5 0.5 0.866025 104.91 46.5452)" fill="#C4C4C4"/>
</mask>
<g mask="url(#mask1)">
<path d="M80.6735 121.31C68.9262 122.015 51.3092 110.64 69.4595 95.1885C87.6099 79.7372 108.499 106.35 119.016 95.8581C124.478 90.4093 116.648 85.4726 110.836 84.5594C95.0385 82.0779 95.5124 68.5449 103.466 68.925" stroke="#D74A6C" stroke-width="11" stroke-linecap="round" stroke-linejoin="round"/>
</g>
<mask id="mask2" mask-type="alpha" maskUnits="userSpaceOnUse" x="45" y="101" width="65" height="49">
<path d="M85.1329 109.896C74.9977 117.221 64.8357 131.006 63.5098 131.772L54.1422 147.125L90.3834 129.516C101.571 123.057 104.397 107.282 104.117 108.328C103.836 109.373 99.862 112.441 85.1329 109.896Z" fill="#C4C4C4"/>
</mask>
<g mask="url(#mask2)">
<path d="M88.307 116.35C72.7882 136.36 52.4413 111.644 70.5916 96.1923C88.742 80.741 98.0421 103.548 113.869 99.3823C129.696 95.217 128.256 78.3692 118.691 76.1567C109.127 73.9441 87.9946 86.1447 93.7738 64.5765" stroke="#58A3C2" stroke-width="11" stroke-linecap="round" stroke-linejoin="round"/>
</g>
<mask id="mask3" mask-type="alpha" maskUnits="userSpaceOnUse" x="102" y="61" width="25" height="32">
<path d="M105.1 61.1592L126.149 71.8506L116.91 89.3394C116.62 89.7521 116.006 91.3658 115.379 92.0465L102.788 89.7584L105.1 61.1592Z" fill="#C4C4C4"/>
</mask>
<g mask="url(#mask3)">
<path d="M71.8469 77.7884L92.6597 113.837L102.186 108.337L81.3732 72.2884L71.8469 77.7884ZM53.7011 107.601C56.27 112.051 60.7594 114.564 65.0376 116.021C69.4013 117.507 74.3203 118.163 78.8649 118.376C83.4475 118.591 87.9054 118.367 91.4726 117.958C93.2556 117.753 94.8787 117.495 96.2267 117.203C97.3469 116.96 98.9359 116.565 100.173 115.85L94.6729 106.324C95.0811 106.088 95.0329 106.206 93.8974 106.452C92.9897 106.649 91.7385 106.855 90.2183 107.029C87.1792 107.378 83.3158 107.573 79.3805 107.388C75.4072 107.202 71.6118 106.639 68.5832 105.608C65.469 104.548 63.8882 103.246 63.2274 102.101L53.7011 107.601ZM106.739 76.9803C107.399 78.1247 107.736 80.1447 107.098 83.3719C106.476 86.5103 105.066 90.0785 103.241 93.6128C101.433 97.1131 99.3326 100.362 97.511 102.819C96.5998 104.048 95.7959 105.029 95.1717 105.717C94.3908 106.577 94.2646 106.56 94.6729 106.324L100.173 115.85C101.41 115.136 102.547 113.958 103.317 113.109C104.244 112.088 105.279 110.811 106.348 109.369C108.486 106.485 110.909 102.736 113.014 98.6601C115.102 94.6178 116.993 90.0298 117.888 85.5077C118.766 81.0744 118.834 75.9296 116.265 71.4803L106.739 76.9803Z" fill="#222222"/>
</g>
<path d="M92.6371 49.211L46.6437 75.7653" stroke="#222222" stroke-width="11"/>
<ellipse cx="59.3215" cy="44.1369" rx="10.526" ry="10.526" transform="rotate(-30 59.3215 44.1369)" stroke="#222222" stroke-width="11"/>
</svg>
