<svg width="126" height="120" viewBox="0 0 126 120" fill="none" xmlns="http://www.w3.org/2000/svg">
<path d="M52.2905 77.9006L58.4585 51.3982L84.7002 57.5055C84.6758 67.477 78.1596 85.5162 52.2905 77.9006Z" fill="#58A3C2"/>
<path d="M58.4585 51.3983L61.7207 37.3809L42.807 47.7557L58.4585 51.3983Z" fill="#D74A6C"/>
<circle cx="62.5996" cy="59.5788" r="21.7372" transform="rotate(90.1076 62.5996 59.5788)" stroke="#222222" stroke-width="8"/>
<mask id="mask0" mask-type="alpha" maskUnits="userSpaceOnUse" x="7" y="3" width="112" height="113">
<circle cx="62.6399" cy="59.561" r="34.6205" transform="rotate(-123.692 62.6399 59.561)" stroke="#222222" stroke-width="11"/>
</mask>
<g mask="url(#mask0)">
<mask id="path-5-inside-1" fill="white">
<path d="M63.0567 19.4427C55.9379 19.3687 48.9275 21.1903 42.7452 24.7206C36.5629 28.2508 31.4313 33.3625 27.877 39.5311C24.3228 45.6996 22.474 52.7028 22.5203 59.8219C22.5666 66.941 24.5063 73.9196 28.1405 80.0414L62.6399 59.561L63.0567 19.4427Z"/>
</mask>
<path d="M63.0567 19.4427C55.9379 19.3687 48.9275 21.1903 42.7452 24.7206C36.5629 28.2508 31.4313 33.3625 27.877 39.5311C24.3228 45.6996 22.474 52.7028 22.5203 59.8219C22.5666 66.941 24.5063 73.9196 28.1405 80.0414L62.6399 59.561L63.0567 19.4427Z" stroke="#222222" stroke-width="22" mask="url(#path-5-inside-1)"/>
</g>
<path d="M29.5459 40.2804L19.1536 34.2804" stroke="#222222" stroke-width="11" stroke-linecap="round"/>
<mask id="mask1" mask-type="alpha" maskUnits="userSpaceOnUse" x="7" y="4" width="112" height="112">
<circle cx="63.1493" cy="59.8551" r="34.6205" transform="rotate(56.3085 63.1493 59.8551)" stroke="#222222" stroke-width="11"/>
</mask>
<g mask="url(#mask1)">
<mask id="path-8-inside-2" fill="white">
<path d="M62.7325 99.9734C69.8514 100.047 76.8617 98.2258 83.044 94.6955C89.2263 91.1653 94.358 86.0536 97.9122 79.885C101.466 73.7165 103.315 66.7133 103.269 59.5942C103.223 52.4751 101.283 45.4965 97.6487 39.3747L63.1493 59.8551L62.7325 99.9734Z"/>
</mask>
<path d="M62.7325 99.9734C69.8514 100.047 76.8617 98.2258 83.044 94.6955C89.2263 91.1653 94.358 86.0536 97.9122 79.885C101.466 73.7165 103.315 66.7133 103.269 59.5942C103.223 52.4751 101.283 45.4965 97.6487 39.3747L63.1493 59.8551L62.7325 99.9734Z" stroke="#222222" stroke-width="22" mask="url(#path-8-inside-2)"/>
</g>
<path d="M96.2433 79.1357L106.636 85.1357" stroke="#222222" stroke-width="11" stroke-linecap="round"/>
</svg>
