<svg width="100" height="100" viewBox="0 0 100 100" fill="none" xmlns="http://www.w3.org/2000/svg">
<g clip-path="url(#clip0)">
<path d="M39.137 67.4601L45.3049 40.9577L71.5466 47.065C71.5222 57.0365 65.006 75.0757 39.137 67.4601Z" fill="#58A3C2"/>
<path d="M45.3049 40.9578L48.5672 26.9405L29.6534 37.3152L45.3049 40.9578Z" fill="#D74A6C"/>
<circle cx="49.446" cy="49.1383" r="21.7372" transform="rotate(90.1076 49.446 49.1383)" stroke="#222222" stroke-width="8"/>
<path d="M50.7889 20.9988L50.9032 10.0022L50.8847 10.002C47.1546 9.96493 43.4545 10.4483 39.8878 11.4252C36.6536 12.3111 33.5291 13.6027 30.5916 15.2801C24.4093 18.8103 19.2777 23.922 15.7235 30.0906C12.1692 36.2591 10.3204 43.2623 10.3667 50.3814C10.3887 53.764 10.8382 57.1149 11.6938 60.3572C12.6388 63.9384 14.0792 67.3871 15.9863 70.5998L15.9869 70.6009L25.4452 64.9861C17.5749 51.7541 21.3759 34.5295 34.3325 25.8912C39.3955 22.5157 45.1312 20.9349 50.7889 20.9988Z" fill="#222222"/>
<path d="M17.3923 30.8399L7 24.8399" stroke="#222222" stroke-width="11" stroke-linecap="round"/>
<path d="M48.6932 78.5363L48.5789 89.5329L48.5973 89.5331C52.3275 89.5702 56.0276 89.0868 59.5943 88.1099C62.8285 87.224 65.9529 85.9324 68.8904 84.255C69.6692 83.8103 70.4312 83.3406 71.1755 82.8468C71.2009 82.83 71.2262 82.8132 71.2515 82.7963C71.2807 82.7768 71.3099 82.7572 71.3391 82.7377C76.4315 79.3232 80.6849 74.779 83.7586 69.4445C87.3128 63.276 89.1617 56.2728 89.1154 49.1537C89.0934 45.7711 88.6439 42.4202 87.7883 39.1779C86.8433 35.5967 85.4029 32.148 83.4958 28.9353L83.4951 28.9342L74.0369 34.549C81.9071 47.781 78.1062 65.0056 65.1495 73.6439C60.0865 77.0194 54.3509 78.6002 48.6932 78.5363Z" fill="#222222"/>
<path d="M82.0897 68.6952L92.482 74.6953" stroke="#222222" stroke-width="11" stroke-linecap="round"/>
</g>
<defs>
<clipPath id="clip0">
<rect width="100" height="100" fill="white"/>
</clipPath>
</defs>
</svg>
