<svg width="100" height="100" viewBox="0 0 100 100" fill="none" xmlns="http://www.w3.org/2000/svg">
<g clip-path="url(#clip0)">
<path fill-rule="evenodd" clip-rule="evenodd" d="M86.6546 41.477C89.2296 38.1764 88.6414 33.4133 85.3408 30.8383L83.9864 29.7816C80.6859 27.2066 75.9228 27.7948 73.3478 31.0954L70.3317 34.9613C68.1808 37.7182 68.2369 41.4955 70.2372 44.1657C70.0964 44.6034 70.0459 45.0778 70.105 45.5641C70.3237 47.3623 71.9586 48.6428 73.7568 48.4241C74.3064 48.3573 74.8077 48.1582 75.2326 47.8625C78.1996 48.8663 81.6028 47.9522 83.6385 45.3429L86.6546 41.477Z" stroke="#222222" stroke-width="8" stroke-linecap="round" stroke-linejoin="round"/>
<path d="M75.6233 33.3368L78.0838 30.183L78.0838 30.183L75.6233 33.3368ZM83.927 39.815L81.4665 42.9688L81.4665 42.9688L83.927 39.815ZM90.5189 31.3657L86.549 31.8559L86.7521 33.5003L88.0584 34.5195L90.5189 31.3657ZM82.2152 24.8875L79.7548 28.0412L81.0611 29.0604L82.7055 28.8573L82.2152 24.8875ZM86.3874 36.6613L78.0838 30.183L73.1629 36.4905L81.4665 42.9688L86.3874 36.6613ZM78.0838 30.183C77.4492 29.6879 76.9631 29.264 76.6052 28.8905C76.2399 28.5094 76.112 28.2873 76.0802 28.219C76.069 28.1951 76.1354 28.3451 76.1048 28.5746C76.077 28.7828 76.0078 28.7584 76.2276 28.4768L69.9201 23.5558C69.0335 24.6922 68.3754 26.0154 68.1751 27.5163C67.9719 29.0385 68.2822 30.4265 68.8305 31.6016C69.829 33.7418 71.7187 35.3638 73.1629 36.4905L78.0838 30.183ZM88.494 38.0467C88.2742 38.3283 88.2338 38.2672 88.429 38.1896C88.6441 38.1041 88.8057 38.1319 88.7798 38.1269C88.7059 38.1126 88.4593 38.0427 88.0008 37.7811C87.5514 37.5247 87.022 37.1563 86.3874 36.6613L81.4665 42.9688C82.9107 44.0955 84.9437 45.5338 87.2624 45.9817C88.5357 46.2277 89.9574 46.191 91.3845 45.6236C92.7916 45.0642 93.9149 44.104 94.8015 42.9676L88.494 38.0467ZM88.0584 34.5195C89.1527 35.3732 89.3477 36.9524 88.494 38.0467L94.8015 42.9676C98.3729 38.3898 97.5572 31.7834 92.9793 28.212L88.0584 34.5195ZM84.6757 21.7337C80.0979 18.1622 73.4915 18.978 69.9201 23.5558L76.2276 28.4768C77.0813 27.3825 78.6605 27.1875 79.7548 28.0412L84.6757 21.7337ZM82.2152 24.8875C82.7055 28.8573 82.7051 28.8573 82.7048 28.8574C82.7047 28.8574 82.7044 28.8574 82.7042 28.8575C82.7039 28.8575 82.7036 28.8575 82.7034 28.8575C82.7031 28.8576 82.703 28.8576 82.7033 28.8576C82.7038 28.8575 82.7056 28.8573 82.7086 28.8569C82.7145 28.8562 82.7253 28.8549 82.7405 28.8531C82.771 28.8496 82.8195 28.844 82.8836 28.837C83.0121 28.8229 83.2019 28.803 83.4351 28.7815C83.9067 28.738 84.5313 28.6901 85.1727 28.6673C85.8356 28.6436 86.412 28.651 86.8215 28.6908C87.027 28.7107 87.0993 28.7306 87.0747 28.7241C87.0577 28.7196 86.9756 28.6973 86.8514 28.6433C86.7328 28.5917 86.5083 28.4823 86.248 28.2792L91.1689 21.9717C90.4087 21.3786 89.6016 21.1176 89.1234 20.9909C88.5863 20.8486 88.0525 20.7727 87.5953 20.7283C86.6795 20.6393 85.7044 20.6432 84.8879 20.6723C84.0499 20.7022 83.2669 20.7631 82.7008 20.8153C82.4152 20.8416 82.1787 20.8663 82.0105 20.8848C81.9262 20.894 81.8588 20.9017 81.8105 20.9074C81.7863 20.9102 81.7669 20.9125 81.7526 20.9143C81.7454 20.9151 81.7395 20.9158 81.7349 20.9164C81.7326 20.9167 81.7306 20.9169 81.729 20.9171C81.7281 20.9172 81.7274 20.9173 81.7267 20.9174C81.7264 20.9174 81.726 20.9175 81.7258 20.9175C81.7254 20.9176 81.725 20.9176 82.2152 24.8875ZM86.248 28.2792C85.9876 28.0761 85.8269 27.885 85.748 27.7825C85.6654 27.6751 85.6238 27.6009 85.6153 27.5856C85.603 27.5632 85.6399 27.6286 85.7092 27.823C85.8474 28.2105 85.9948 28.7678 86.1331 29.4165C86.267 30.0443 86.3725 30.6618 86.445 31.1298C86.4809 31.3612 86.5078 31.5502 86.5254 31.6782C86.5342 31.7421 86.5406 31.7904 86.5445 31.8209C86.5465 31.8361 86.5479 31.8469 86.5486 31.8528C86.549 31.8558 86.5492 31.8576 86.5493 31.8581C86.5493 31.8584 86.5493 31.8583 86.5493 31.858C86.5492 31.8578 86.5492 31.8575 86.5492 31.8572C86.5492 31.857 86.5491 31.8567 86.5491 31.8566C86.5491 31.8563 86.549 31.8559 90.5189 31.3657C94.4887 30.8755 94.4887 30.8751 94.4886 30.8747C94.4886 30.8745 94.4885 30.8741 94.4885 30.8737C94.4884 30.8731 94.4883 30.8723 94.4882 30.8715C94.488 30.8699 94.4878 30.8679 94.4875 30.8656C94.4869 30.861 94.4862 30.8551 94.4853 30.8479C94.4834 30.8336 94.481 30.8142 94.4778 30.7901C94.4716 30.7418 94.4626 30.6745 94.4511 30.5906C94.4281 30.4229 94.3945 30.1875 94.3506 29.9041C94.2635 29.3423 94.1321 28.5681 93.9572 27.7479C93.7868 26.9488 93.5534 26.0021 93.2443 25.1355C93.09 24.7028 92.8865 24.2035 92.6178 23.7171C92.3787 23.2842 91.9291 22.5648 91.1689 21.9717L86.248 28.2792Z" fill="#222222"/>
<path fill-rule="evenodd" clip-rule="evenodd" d="M86.6546 41.477C89.2296 38.1764 88.6414 33.4133 85.3408 30.8383L83.9864 29.7816C80.6859 27.2066 75.9228 27.7948 73.3478 31.0954L70.3317 34.9613C68.1808 37.7182 68.2369 41.4955 70.2372 44.1657C70.0964 44.6034 70.0459 45.0778 70.105 45.5641C70.3237 47.3623 71.9586 48.6428 73.7568 48.4241C74.3064 48.3573 74.8077 48.1582 75.2326 47.8625C78.1996 48.8663 81.6028 47.9522 83.6385 45.3429L86.6546 41.477Z" fill="#58A3C2" stroke="#222222" stroke-width="3" stroke-linecap="round" stroke-linejoin="round"/>
<path d="M73.0738 26.0163C75.2864 23.1803 79.3792 22.6748 82.2152 24.8875C82.2152 24.8875 87.5577 24.2277 88.7084 25.1255C89.8591 26.0232 90.5189 31.3657 90.5189 31.3657C93.3549 33.5783 93.8603 37.6711 91.6477 40.5071C89.4351 43.3432 86.763 42.0276 83.927 39.815L75.6233 33.3368C72.7873 31.1241 70.8612 28.8524 73.0738 26.0163Z" fill="#D74A6C"/>
<path d="M75.6233 33.3368L76.546 32.1541L76.546 32.1541L75.6233 33.3368ZM83.927 39.815L83.0043 40.9977L83.0043 40.9977L83.927 39.815ZM90.5189 31.3657L89.0302 31.5495L89.1063 32.1662L89.5962 32.5484L90.5189 31.3657ZM82.2152 24.8875L81.2926 26.0701L81.7824 26.4523L82.3991 26.3761L82.2152 24.8875ZM84.8496 38.6324L76.546 32.1541L74.7007 34.5194L83.0043 40.9977L84.8496 38.6324ZM76.546 32.1541C75.1378 31.0554 74.2094 30.1222 73.8146 29.2761C73.6356 28.8924 73.5843 28.5618 73.6267 28.2439C73.6702 27.918 73.8284 27.4877 74.2565 26.939L71.8912 25.0936C71.213 25.9629 70.7821 26.8802 70.6531 27.847C70.523 28.8218 70.7156 29.7292 71.096 30.5446C71.8201 32.0965 73.2728 33.4055 74.7007 34.5194L76.546 32.1541ZM90.4651 39.5845C90.0369 40.1332 89.6581 40.3912 89.3526 40.5127C89.0545 40.6312 88.7213 40.6619 88.3056 40.5815C87.3889 40.4045 86.2579 39.731 84.8496 38.6324L83.0043 40.9977C84.4321 42.1116 86.0552 43.2023 87.7366 43.5271C88.6201 43.6978 89.547 43.6638 90.4609 43.3005C91.3673 42.9401 92.1522 42.2991 92.8304 41.4298L90.4651 39.5845ZM89.5962 32.5484C91.7791 34.2514 92.1681 37.4016 90.4651 39.5845L92.8304 41.4298C95.5526 37.9406 94.9308 32.9052 91.4415 30.183L89.5962 32.5484ZM83.1379 23.7048C79.6487 20.9826 74.6133 21.6044 71.8912 25.0936L74.2565 26.939C75.9595 24.7561 79.1097 24.3671 81.2926 26.0701L83.1379 23.7048ZM82.2152 24.8875C82.3991 26.3761 82.3989 26.3762 82.3988 26.3762C82.3988 26.3762 82.3988 26.3762 82.3987 26.3762C82.3987 26.3762 82.3988 26.3762 82.3989 26.3762C82.3992 26.3761 82.3998 26.3761 82.4007 26.3759C82.4025 26.3757 82.4056 26.3754 82.4098 26.3748C82.4184 26.3738 82.4319 26.3722 82.4499 26.3701C82.486 26.3659 82.5404 26.3596 82.6107 26.3519C82.7516 26.3364 82.9561 26.3151 83.2056 26.2921C83.7068 26.2459 84.3809 26.1939 85.0837 26.1689C85.7946 26.1435 86.4956 26.1473 87.0633 26.2025C87.3475 26.2301 87.564 26.2675 87.7149 26.3075C87.8879 26.3533 87.873 26.3762 87.7858 26.3081L89.6311 23.9428C89.2561 23.6503 88.8226 23.4974 88.4832 23.4075C88.1216 23.3117 87.732 23.2534 87.3535 23.2166C86.5959 23.143 85.7454 23.1434 84.9769 23.1708C84.2003 23.1984 83.4669 23.2553 82.9303 23.3047C82.6611 23.3295 82.4391 23.3527 82.2833 23.3698C82.2054 23.3784 82.1439 23.3854 82.1011 23.3904C82.0798 23.3929 82.0631 23.3949 82.0513 23.3963C82.0455 23.397 82.0409 23.3976 82.0375 23.398C82.0359 23.3982 82.0345 23.3984 82.0335 23.3985C82.033 23.3986 82.0325 23.3986 82.0322 23.3987C82.032 23.3987 82.0318 23.3987 82.0317 23.3987C82.0316 23.3987 82.0314 23.3988 82.2152 24.8875ZM87.7858 26.3081C87.6985 26.24 87.7171 26.22 87.8036 26.3767C87.8791 26.5133 87.968 26.7143 88.0639 26.9831C88.2556 27.5204 88.4298 28.1994 88.5781 28.8951C88.7248 29.5829 88.8384 30.2494 88.9155 30.7467C88.9539 30.9944 88.9829 31.1979 89.0022 31.3383C89.0118 31.4085 89.019 31.4627 89.0237 31.4988C89.026 31.5168 89.0277 31.5302 89.0288 31.5388C89.0294 31.5431 89.0297 31.5461 89.03 31.5479C89.0301 31.5488 89.0302 31.5494 89.0302 31.5497C89.0302 31.5498 89.0302 31.5499 89.0302 31.5499C89.0302 31.5498 89.0302 31.5498 89.0302 31.5498C89.0302 31.5497 89.0302 31.5495 90.5189 31.3657C92.0076 31.1819 92.0075 31.1817 92.0075 31.1815C92.0075 31.1814 92.0075 31.1812 92.0075 31.1811C92.0074 31.1807 92.0074 31.1803 92.0073 31.1798C92.0072 31.1787 92.007 31.1774 92.0068 31.1757C92.0064 31.1724 92.0058 31.1678 92.0051 31.1619C92.0036 31.1502 92.0014 31.1335 91.9987 31.1122C91.9931 31.0695 91.985 31.0081 91.9743 30.9305C91.953 30.7752 91.9215 30.5543 91.8801 30.2871C91.7975 29.7546 91.6742 29.0294 91.5122 28.2694C91.3518 27.5173 91.1453 26.6923 90.8896 25.9753C90.7618 25.6171 90.6104 25.2534 90.4296 24.926C90.2598 24.6187 90.0061 24.2353 89.6311 23.9428L87.7858 26.3081Z" fill="#222222"/>
<path fill-rule="evenodd" clip-rule="evenodd" d="M35.0825 59.8407C29.4623 56.1219 21.8915 57.6634 18.1728 63.2837L16.6467 65.59C12.928 71.2103 14.4695 78.781 20.0897 82.4998L26.6727 86.8555C31.3672 89.9617 37.4225 89.3979 41.4572 85.8526C42.1773 86.0236 42.945 86.0452 43.7181 85.8893C46.5767 85.3128 48.4267 82.5282 47.8503 79.6696C47.6741 78.7959 47.2916 78.0163 46.7637 77.3715C48.0026 72.4837 46.1087 67.1363 41.6655 64.1964L35.0825 59.8407Z" stroke="#222222" stroke-width="8" stroke-linecap="round" stroke-linejoin="round"/>
<path d="M23.4015 78.5664L20.0656 76.3592L20.0656 76.3592L23.4015 78.5664ZM32.7572 64.4269L36.0931 66.6341L36.0931 66.6341L32.7572 64.4269ZM18.3696 54.907L19.1677 58.8266L20.7912 58.496L21.7055 57.1143L18.3696 54.907ZM9.0139 69.0466L12.3498 71.2538L13.264 69.8721L12.9335 68.2485L9.0139 69.0466ZM29.4214 62.2196L20.0656 76.3592L26.7374 80.7737L36.0931 66.6341L29.4214 62.2196ZM20.0656 76.3592C18.4863 78.7462 17.2812 80.0615 16.331 80.5987C15.9569 80.8102 15.7307 80.8359 15.5648 80.8269C15.3774 80.8166 14.9348 80.7404 14.1796 80.2407L9.7651 86.9124C11.4245 88.0104 13.2185 88.7104 15.1275 88.8149C17.0581 88.9206 18.7882 88.3995 20.2682 87.5628C23.0265 86.0034 25.1214 83.216 26.7374 80.7737L20.0656 76.3592ZM30.6923 55.2845C31.4476 55.7842 31.6908 56.1617 31.7735 56.3301C31.8467 56.4793 31.9115 56.6976 31.8631 57.1246C31.7402 58.2092 31.0008 59.8326 29.4214 62.2196L36.0931 66.6341C37.7091 64.1918 39.4555 61.1737 39.8122 58.0254C40.0037 56.336 39.8067 54.5398 38.9546 52.8043C38.112 51.0881 36.7662 49.7107 35.1068 48.6127L30.6923 55.2845ZM21.7055 57.1143C23.6818 54.1273 27.7054 53.3081 30.6923 55.2845L35.1068 48.6127C28.4352 44.1983 19.4482 46.0281 15.0337 52.6998L21.7055 57.1143ZM5.67802 66.8393C1.26361 73.511 3.09345 82.498 9.7651 86.9124L14.1796 80.2407C11.1926 78.2643 10.3734 74.2408 12.3498 71.2538L5.67802 66.8393ZM9.0139 69.0466C12.9335 68.2485 12.9335 68.2489 12.9336 68.2492C12.9336 68.2492 12.9337 68.2495 12.9337 68.2496C12.9337 68.2498 12.9338 68.2499 12.9338 68.2499C12.9338 68.2499 12.9336 68.2494 12.9334 68.2483C12.933 68.2462 12.9322 68.2422 12.931 68.2362C12.9286 68.2242 12.9247 68.2045 12.9194 68.1776C12.9087 68.1237 12.8926 68.0409 12.8721 67.9328C12.8311 67.7165 12.7729 67.4002 12.7064 67.0128C12.5726 66.2328 12.4096 65.1885 12.2857 64.1023C12.1593 62.9948 12.0859 61.9479 12.1013 61.1306C12.109 60.7212 12.1379 60.461 12.1624 60.3271C12.1979 60.1332 12.1866 60.3957 11.9173 60.8027L5.24553 56.3882C4.6521 57.2851 4.41121 58.2415 4.29308 58.8871C4.16398 59.5926 4.11524 60.3173 4.10273 60.9796C4.07771 62.3055 4.19344 63.749 4.33725 65.0093C4.4835 66.2909 4.67174 67.492 4.8216 68.3655C4.89697 68.8048 4.96367 69.1673 5.01214 69.4229C5.0364 69.5509 5.05616 69.6524 5.07023 69.7239C5.07727 69.7596 5.0829 69.7879 5.08696 69.8081C5.08899 69.8183 5.09063 69.8264 5.09186 69.8325C5.09248 69.8356 5.093 69.8381 5.09341 69.8401C5.09361 69.8412 5.09379 69.842 5.09394 69.8428C5.09402 69.8432 5.09411 69.8436 5.09415 69.8438C5.09424 69.8442 5.09432 69.8446 9.0139 69.0466ZM11.9173 60.8027C11.648 61.2097 11.4108 61.3227 11.5754 61.2143C11.6891 61.1394 11.9173 61.011 12.291 60.8439C13.0373 60.5101 14.0295 60.1683 15.0983 59.8516C16.1465 59.5409 17.1714 59.2826 17.9415 59.1008C18.3241 59.0105 18.6379 58.9404 18.8531 58.8936C18.9606 58.8702 19.0431 58.8526 19.0969 58.8413C19.1237 58.8357 19.1434 58.8316 19.1554 58.8291C19.1613 58.8279 19.1654 58.8271 19.1675 58.8266C19.1685 58.8264 19.169 58.8263 19.1691 58.8263C19.1691 58.8263 19.169 58.8263 19.1688 58.8264C19.1686 58.8264 19.1684 58.8264 19.1683 58.8265C19.168 58.8265 19.1677 58.8266 18.3696 54.907C17.5715 50.9874 17.5711 50.9875 17.5707 50.9876C17.5705 50.9876 17.5701 50.9877 17.5697 50.9878C17.5689 50.988 17.5681 50.9881 17.567 50.9884C17.565 50.9888 17.5625 50.9893 17.5594 50.9899C17.5533 50.9912 17.5452 50.9928 17.5351 50.9949C17.5148 50.9991 17.4866 51.005 17.451 51.0125C17.3797 51.0275 17.2785 51.049 17.1513 51.0767C16.897 51.132 16.5373 51.2124 16.1035 51.3148C15.241 51.5184 14.0619 51.8148 12.8251 52.1813C11.6089 52.5417 10.2351 52.9996 9.02454 53.5411C8.41986 53.8116 7.77196 54.1398 7.17308 54.5345C6.6251 54.8956 5.83896 55.4913 5.24553 56.3882L11.9173 60.8027Z" fill="#222222"/>
<path fill-rule="evenodd" clip-rule="evenodd" d="M35.0825 59.8407C29.4623 56.1219 21.8915 57.6634 18.1728 63.2837L16.6467 65.59C12.928 71.2103 14.4695 78.781 20.0897 82.4998L26.6727 86.8555C31.3672 89.9617 37.4225 89.3979 41.4572 85.8526C42.1773 86.0236 42.945 86.0452 43.7181 85.8893C46.5767 85.3128 48.4267 82.5282 47.8503 79.6696C47.6741 78.7959 47.2916 78.0163 46.7637 77.3715C48.0026 72.4837 46.1087 67.1363 41.6655 64.1964L35.0825 59.8407Z" fill="#58A3C2" stroke="#222222" stroke-width="3" stroke-linecap="round" stroke-linejoin="round"/>
<path d="M11.9723 83.5765C7.14305 80.3812 5.81851 73.8759 9.0139 69.0466C9.0139 69.0466 7.28491 60.5549 8.58141 58.5954C9.87791 56.636 18.3696 54.907 18.3696 54.907C21.565 50.0777 28.0703 48.7532 32.8996 51.9486C37.7289 55.144 35.9526 59.5976 32.7572 64.4269L23.4015 78.5664C20.2061 83.3957 16.8016 86.7719 11.9723 83.5765Z" fill="#D74A6C"/>
<path d="M23.4015 78.5664L22.1506 77.7387L22.1506 77.7387L23.4015 78.5664ZM32.7572 64.4269L34.0082 65.2546L34.0082 65.2546L32.7572 64.4269ZM18.3696 54.907L18.6689 56.3769L19.2777 56.2529L19.6206 55.7347L18.3696 54.907ZM9.0139 69.0466L10.2649 69.8743L10.6077 69.3561L10.4837 68.7473L9.0139 69.0466ZM31.5063 63.5991L22.1506 77.7387L24.6525 79.3941L34.0082 65.2546L31.5063 63.5991ZM22.1506 77.7387C20.5597 80.143 19.0766 81.9183 17.5614 82.775C16.8417 83.1819 16.1455 83.3624 15.4281 83.3231C14.7027 83.2834 13.8379 83.0123 12.8001 82.3256L11.1446 84.8275C12.5215 85.7385 13.8931 86.2436 15.2642 86.3186C16.6433 86.3941 17.9034 86.0279 19.0379 85.3865C21.2311 84.1466 23.0479 81.8192 24.6525 79.3941L22.1506 77.7387ZM32.0719 53.1995C33.1097 53.8862 33.6974 54.5762 34.0176 55.2283C34.3342 55.8732 34.4403 56.5846 34.3472 57.4061C34.1512 59.1356 33.0971 61.1949 31.5063 63.5991L34.0082 65.2546C35.6128 62.8296 37.0445 60.2473 37.3281 57.7439C37.4749 56.449 37.3192 55.1459 36.7105 53.9062C36.1054 52.6736 35.1041 51.6086 33.7273 50.6976L32.0719 53.1995ZM19.6206 55.7347C22.3588 51.5963 27.9335 50.4613 32.0719 53.1995L33.7273 50.6976C28.2071 47.0451 20.7712 48.5591 17.1187 54.0793L19.6206 55.7347ZM7.76295 68.2189C4.11042 73.739 5.62445 81.175 11.1446 84.8275L12.8001 82.3256C8.66165 79.5873 7.5266 74.0127 10.2649 69.8743L7.76295 68.2189ZM9.0139 69.0466C10.4837 68.7473 10.4838 68.7474 10.4838 68.7475C10.4838 68.7475 10.4838 68.7475 10.4838 68.7475C10.4838 68.7474 10.4837 68.7472 10.4837 68.7469C10.4835 68.7462 10.4833 68.745 10.4829 68.7434C10.4823 68.74 10.4812 68.7347 10.4797 68.7274C10.4768 68.7129 10.4724 68.6905 10.4665 68.6608C10.4548 68.6014 10.4376 68.5128 10.4159 68.3985C10.3725 68.1698 10.3117 67.8391 10.2424 67.4355C10.1036 66.6263 9.93271 65.533 9.80179 64.3858C9.66997 63.2305 9.58333 62.0597 9.60176 61.0834C9.61097 60.595 9.64606 60.1896 9.70325 59.8771C9.73153 59.7226 9.76233 59.6069 9.79068 59.5247C9.81979 59.4402 9.83853 59.4138 9.83236 59.4232L7.33045 57.7677C7.00663 58.2571 6.84455 58.8327 6.75225 59.3371C6.65584 59.864 6.6133 60.4435 6.60229 61.0268C6.58026 62.1938 6.68277 63.5133 6.82114 64.7259C6.96041 65.9464 7.14076 67.0985 7.2856 67.9428C7.35819 68.3659 7.42225 68.7139 7.46839 68.9573C7.49147 69.079 7.51009 69.1747 7.52309 69.2407C7.52958 69.2737 7.53468 69.2992 7.53822 69.3169C7.53999 69.3257 7.54138 69.3326 7.54236 69.3375C7.54285 69.3399 7.54323 69.3418 7.54352 69.3432C7.54366 69.3439 7.54378 69.3445 7.54387 69.3449C7.54391 69.3451 7.54396 69.3454 7.54398 69.3455C7.54402 69.3457 7.54406 69.3459 9.0139 69.0466ZM9.83236 59.4232C9.82619 59.4325 9.84316 59.4049 9.90948 59.3451C9.97408 59.2869 10.0685 59.2133 10.1997 59.1268C10.465 58.952 10.8243 58.7612 11.2702 58.5618C12.1616 58.1631 13.2731 57.785 14.3879 57.4546C15.495 57.1265 16.5681 56.8563 17.3671 56.6677C17.7657 56.5736 18.0939 56.5003 18.3213 56.4508C18.435 56.4261 18.5233 56.4073 18.5825 56.3948C18.6121 56.3886 18.6345 56.384 18.649 56.3809C18.6563 56.3794 18.6616 56.3783 18.665 56.3777C18.6666 56.3773 18.6678 56.3771 18.6684 56.3769C18.6688 56.3769 18.669 56.3768 18.669 56.3768C18.6691 56.3768 18.669 56.3768 18.6691 56.3768C18.669 56.3768 18.6689 56.3769 18.3696 54.907C18.0703 53.4372 18.0702 53.4372 18.07 53.4372C18.0699 53.4373 18.0696 53.4373 18.0694 53.4374C18.069 53.4375 18.0684 53.4376 18.0677 53.4377C18.0663 53.438 18.0644 53.4384 18.0619 53.4389C18.0571 53.4399 18.0502 53.4413 18.0414 53.4431C18.0237 53.4468 17.9982 53.4521 17.9653 53.459C17.8995 53.4728 17.8042 53.4931 17.6831 53.5195C17.441 53.5722 17.0957 53.6493 16.6779 53.7479C15.8442 53.9447 14.7133 54.2292 13.5355 54.5783C12.3653 54.925 11.1108 55.3466 10.0453 55.8232C9.5128 56.0614 8.99605 56.3272 8.5488 56.6219C8.12064 56.9041 7.65428 57.2783 7.33045 57.7677L9.83236 59.4232Z" fill="#222222"/>
<path d="M26.1856 36.8416L22.9295 39.1649C24.2126 40.9632 26.7106 41.3808 28.5089 40.0977L26.1856 36.8416ZM18.0572 25.4498L15.7339 22.1937C14.8703 22.8099 14.2869 23.7439 14.1119 24.7903C13.937 25.8366 14.1849 26.9096 14.8011 27.7732L18.0572 25.4498ZM29.4404 34.5192L31.7637 37.7753C32.6273 37.1591 33.2107 36.2251 33.3856 35.1788L29.4404 34.5192ZM30.2174 29.8715L31.8141 26.2041C30.6847 25.7124 29.3918 25.7684 28.3093 26.356C27.2267 26.9435 26.4752 27.9971 26.2721 29.212L30.2174 29.8715ZM33.7801 31.4227L32.1834 35.0901C33.4716 35.651 34.9597 35.4949 36.1034 34.6788L33.7801 31.4227ZM35.9475 29.8761L39.2036 27.5528C37.9205 25.7545 35.4225 25.3369 33.6242 26.62L35.9475 29.8761ZM51.5227 52.9012L54.8548 50.6881L54.8548 50.6881L51.5227 52.9012ZM79.299 90.6322L81.6223 93.8883L79.299 90.6322ZM84.5883 86.858L82.265 83.6019L84.5883 86.858ZM57.8591 48.3787L54.6706 50.7939L54.6706 50.7939L57.8591 48.3787ZM41.2369 26.102L38.9136 22.8459C37.1153 24.129 36.6977 26.627 37.9808 28.4253L41.2369 26.102ZM43.002 24.8425L45.3253 28.0986C46.1889 27.4824 46.7723 26.5484 46.9472 25.5021L43.002 24.8425ZM43.779 20.1949L40.1058 18.6114C39.9782 18.9073 39.8869 19.2175 39.8337 19.5353L43.779 20.1949ZM57.6485 14.3917L56.6345 18.2611C58.2636 18.688 59.9855 18.0489 60.9416 16.6624C61.8976 15.276 61.8828 13.4393 60.9046 12.0684L57.6485 14.3917ZM25.6517 20.0309L23.3284 16.7748C22.1846 17.5909 21.5529 18.9473 21.6643 20.3479L25.6517 20.0309ZM25.9596 23.9044L25.3001 27.8497C26.515 28.0528 27.7557 27.6848 28.6634 26.8522C29.5711 26.0197 30.0447 24.8153 29.9471 23.5874L25.9596 23.9044ZM21.312 23.1274L21.9715 19.1822C20.9252 19.0073 19.8522 19.2552 18.9886 19.8713L21.312 23.1274ZM29.4417 34.5183L21.3133 23.1265L14.8011 27.7732L22.9295 39.1649L29.4417 34.5183ZM27.117 31.2631L23.8623 33.5855L28.5089 40.0977L31.7637 37.7753L27.117 31.2631ZM26.2721 29.212L25.4951 33.8596L33.3856 35.1788L34.1626 30.5311L26.2721 29.212ZM35.3768 27.7552L31.8141 26.2041L28.6206 33.539L32.1834 35.0901L35.3768 27.7552ZM33.6242 26.62L31.4568 28.1666L36.1034 34.6788L38.2709 33.1322L33.6242 26.62ZM54.8548 50.6881C49.013 41.8925 43.3381 33.3472 39.2036 27.5528L32.6914 32.1995C36.7293 37.8584 42.3165 46.2698 48.1907 55.1142L54.8548 50.6881ZM76.9756 87.3761C78.5148 86.2779 80.0266 86.8059 80.3023 86.9159C80.6604 87.0588 80.7866 87.198 80.6198 87.0616C80.3347 86.8283 79.7947 86.291 78.9742 85.3304C77.3782 83.4619 75.2163 80.5832 72.6499 76.9735C67.5379 69.7836 61.0941 60.0824 54.8548 50.6881L48.1907 55.1142C54.405 64.4707 60.9278 74.2926 66.1298 81.6092C68.7204 85.2528 71.0523 88.3733 72.8912 90.5262C73.7882 91.5764 74.7009 92.5554 75.5544 93.2536C75.9569 93.5829 76.5738 94.0416 77.338 94.3464C78.0196 94.6184 79.8528 95.1509 81.6223 93.8883L76.9756 87.3761ZM82.265 83.6019L76.9756 87.3761L81.6223 93.8883L86.9117 90.1141L82.265 83.6019ZM54.6706 50.7939C61.477 59.7796 68.5143 69.0708 73.6556 76.2542C76.2352 79.8585 78.2776 82.8494 79.5655 84.9715C80.2255 86.059 80.5941 86.7674 80.7517 87.1483C80.844 87.3715 80.7643 87.2476 80.7243 86.9126C80.7161 86.8437 80.4501 84.8969 82.265 83.6019L86.9117 90.1141C88.9227 88.6792 88.7258 86.4495 88.6679 85.9644C88.5782 85.2131 88.3301 84.5396 88.1439 84.0896C87.7444 83.1242 87.1151 81.9916 86.4045 80.8208C84.9512 78.4262 82.7612 75.2312 80.161 71.5982C74.9427 64.3071 67.8308 54.9185 61.0477 45.9635L54.6706 50.7939ZM37.9808 28.4253C42.108 34.2095 48.2937 42.3751 54.6706 50.7939L61.0477 45.9635C54.6407 37.505 48.5379 29.4475 44.493 23.7787L37.9808 28.4253ZM40.6787 21.5864L38.9136 22.8459L43.5602 29.3581L45.3253 28.0986L40.6787 21.5864ZM39.8337 19.5353L39.0567 24.183L46.9472 25.5021L47.7242 20.8544L39.8337 19.5353ZM58.6626 10.5224C54.9236 9.54253 50.837 10.4847 47.7374 11.8753C46.1255 12.5985 44.5942 13.523 43.3074 14.5866C42.0676 15.6113 40.8169 16.9618 40.1058 18.6114L47.4522 21.7784C47.4515 21.7801 47.5004 21.6718 47.6693 21.4679C47.8339 21.2691 48.075 21.025 48.4041 20.7529C49.0685 20.2038 49.969 19.6424 51.0121 19.1744C53.2226 18.1827 55.3388 17.9215 56.6345 18.2611L58.6626 10.5224ZM37.1969 16.7069C41.0993 13.9224 45.1059 13.4839 48.3922 14.0333C50.057 14.3116 51.5063 14.841 52.61 15.4261C53.1601 15.7176 53.5942 16.0071 53.9111 16.2595C54.0682 16.3847 54.1858 16.4922 54.2692 16.5768C54.3104 16.6186 54.3406 16.6521 54.3616 16.6767C54.372 16.6889 54.3796 16.6984 54.3848 16.705C54.3874 16.7083 54.3893 16.7108 54.3905 16.7125C54.3912 16.7133 54.3917 16.714 54.392 16.7144C54.3923 16.7149 54.3924 16.7151 54.3924 16.7151L60.9046 12.0684C59.83 10.5624 58.1394 9.30257 56.3566 8.35762C54.498 7.37244 52.2295 6.56375 49.7114 6.14276C44.6319 5.29359 38.4123 6.01196 32.5503 10.1947L37.1969 16.7069ZM27.975 23.287L37.1969 16.7069L32.5503 10.1947L23.3284 16.7748L27.975 23.287ZM29.9471 23.5874L29.6391 19.7139L21.6643 20.3479L21.9722 24.2214L29.9471 23.5874ZM20.6524 27.0727L25.3001 27.8497L26.6192 19.9592L21.9715 19.1822L20.6524 27.0727ZM20.3805 28.7059L23.6353 26.3835L18.9886 19.8713L15.7339 22.1937L20.3805 28.7059Z" fill="#222222"/>
<path fill-rule="evenodd" clip-rule="evenodd" d="M18.0572 25.4498L26.1856 36.8416L29.4404 34.5192L30.2174 29.8715L33.7801 31.4227L35.9475 29.8761C40.0337 35.6028 45.6647 44.0811 51.5227 52.9012C63.9764 71.6519 77.4559 91.9472 79.299 90.6322L84.5883 86.858C86.1577 85.7382 71.4486 66.3194 57.8591 48.3787C51.4672 39.9401 45.3229 31.8285 41.2369 26.102L43.002 24.8425L43.779 20.1949C45.2431 16.7985 52.6138 13.0723 57.6485 14.3917C55.3261 11.1369 44.638 6.48358 34.8736 13.4508L25.6517 20.0309L25.9596 23.9044L21.312 23.1274L18.0572 25.4498Z" fill="#58A3C2"/>
<path d="M26.1856 36.8416L24.9645 37.7128C25.4457 38.3872 26.3825 38.5438 27.0568 38.0626L26.1856 36.8416ZM18.0572 25.4498L17.1859 24.2288C16.8621 24.4599 16.6433 24.8101 16.5777 25.2025C16.5121 25.5949 16.6051 25.9972 16.8362 26.3211L18.0572 25.4498ZM29.4404 34.5192L30.3116 35.7402C30.6355 35.5092 30.8542 35.1589 30.9198 34.7665L29.4404 34.5192ZM30.2174 29.8715L30.8161 28.4962C30.3926 28.3118 29.9078 28.3329 29.5018 28.5532C29.0959 28.7735 28.8141 29.1686 28.7379 29.6242L30.2174 29.8715ZM33.7801 31.4227L33.1813 32.798C33.6644 33.0083 34.2224 32.9497 34.6513 32.6437L33.7801 31.4227ZM35.9475 29.8761L37.1686 29.0049C36.6874 28.3305 35.7506 28.1739 35.0763 28.6551L35.9475 29.8761ZM51.5227 52.9012L52.7723 52.0713L52.7723 52.0713L51.5227 52.9012ZM79.299 90.6322L80.1702 91.8532L79.299 90.6322ZM84.5883 86.858L83.7171 85.637L84.5883 86.858ZM57.8591 48.3787L56.6634 49.2844L56.6634 49.2844L57.8591 48.3787ZM41.2369 26.102L40.3657 24.8809C39.6913 25.3621 39.5347 26.2989 40.0159 26.9732L41.2369 26.102ZM43.002 24.8425L43.8732 26.0636C44.1971 25.8325 44.4159 25.4822 44.4815 25.0899L43.002 24.8425ZM43.779 20.1949L42.4015 19.6011C42.3537 19.712 42.3194 19.8284 42.2995 19.9475L43.779 20.1949ZM57.6485 14.3917L57.2683 15.8427C57.8792 16.0028 58.5249 15.7632 58.8834 15.2432C59.2419 14.7233 59.2364 14.0346 58.8696 13.5205L57.6485 14.3917ZM25.6517 20.0309L24.7804 18.8099C24.3515 19.1159 24.1147 19.6245 24.1564 20.1498L25.6517 20.0309ZM25.9596 23.9044L25.7123 25.3839C26.1679 25.4601 26.6331 25.3221 26.9735 25.0099C27.3139 24.6976 27.4915 24.246 27.4549 23.7856L25.9596 23.9044ZM21.312 23.1274L21.5593 21.648C21.1669 21.5824 20.7646 21.6753 20.4407 21.9064L21.312 23.1274ZM27.4066 35.9703L19.2782 24.5786L16.8362 26.3211L24.9645 37.7128L27.4066 35.9703ZM28.5691 33.2982L25.3143 35.6206L27.0568 38.0626L30.3116 35.7402L28.5691 33.2982ZM28.7379 29.6242L27.9609 34.2719L30.9198 34.7665L31.6968 30.1189L28.7379 29.6242ZM34.3789 30.0474L30.8161 28.4962L29.6186 31.2468L33.1813 32.798L34.3789 30.0474ZM35.0763 28.6551L32.9088 30.2016L34.6513 32.6437L36.8188 31.0972L35.0763 28.6551ZM52.7723 52.0713C46.9203 43.2604 41.2729 34.7569 37.1686 29.0049L34.7265 30.7474C38.7946 36.4487 44.4092 44.9019 50.2732 53.731L52.7723 52.0713ZM78.4277 89.4111C78.6635 89.2429 78.9138 89.1919 79.1001 89.1929C79.2659 89.1937 79.3664 89.2341 79.3759 89.2379C79.3833 89.2409 79.2773 89.1933 79.0369 88.9966C78.5741 88.618 77.9177 87.9427 77.0733 86.9541C75.4013 84.9967 73.1863 82.0424 70.6124 78.4222C65.4723 71.1926 59.0038 61.4537 52.7723 52.0713L50.2732 53.731C56.4954 63.0994 62.9935 72.8835 68.1673 80.1605C70.7504 83.7936 73.0291 86.8385 74.7921 88.9025C75.6652 89.9247 76.4615 90.7657 77.1373 91.3186C77.4662 91.5876 77.8509 91.8595 78.2643 92.0244C78.6468 92.177 79.4346 92.3781 80.1702 91.8532L78.4277 89.4111ZM83.7171 85.637L78.4277 89.4111L80.1702 91.8532L85.4596 88.0791L83.7171 85.637ZM56.6634 49.2844C63.4625 58.2605 70.5232 67.5821 75.6885 74.7992C78.2746 78.4125 80.3631 81.4672 81.7027 83.6744C82.3785 84.7879 82.8285 85.6289 83.0617 86.1925C83.1179 86.3282 83.1557 86.4341 83.1796 86.513C83.2046 86.5953 83.2078 86.6261 83.2067 86.6163C83.2067 86.6162 83.1908 86.5031 83.2343 86.3314C83.2837 86.1366 83.4169 85.8512 83.7171 85.637L85.4596 88.0791C86.275 87.4972 86.2227 86.5727 86.1855 86.2607C86.1364 85.8489 85.9907 85.4246 85.8338 85.0455C85.5099 84.2627 84.9621 83.2627 84.2673 82.1179C82.8657 79.8085 80.7218 76.6772 78.1281 73.0532C72.9338 65.7957 65.8452 56.4376 59.0548 47.473L56.6634 49.2844ZM40.0159 26.9732C44.1173 32.7213 50.2771 40.8532 56.6634 49.2844L59.0548 47.473C52.6573 39.0269 46.5286 30.9356 42.4579 25.2307L40.0159 26.9732ZM42.1307 23.6215L40.3657 24.8809L42.1082 27.323L43.8732 26.0636L42.1307 23.6215ZM42.2995 19.9475L41.5225 24.5952L44.4815 25.0899L45.2584 20.4422L42.2995 19.9475ZM58.0288 12.9407C55.0533 12.161 51.5825 12.8903 48.7608 14.1563C47.3266 14.7997 45.9924 15.6108 44.9001 16.5135C43.8255 17.4018 42.897 18.4518 42.4015 19.6011L45.1564 20.7887C45.3931 20.2398 45.9349 19.5503 46.8114 18.8259C47.6703 18.1161 48.7679 17.4412 49.9888 16.8934C52.4771 15.7771 55.209 15.3031 57.2683 15.8427L58.0288 12.9407ZM35.7448 14.6718C40.2596 11.4504 44.9578 10.9244 48.8045 11.5675C50.7359 11.8904 52.4412 12.5071 53.7808 13.2172C55.1489 13.9423 56.0322 14.7089 56.4275 15.263L58.8696 13.5205C58.1037 12.4472 56.7801 11.4115 55.1858 10.5665C53.5631 9.70638 51.5506 8.98494 49.2991 8.60854C44.78 7.85304 39.252 8.48397 34.0023 12.2297L35.7448 14.6718ZM26.5229 21.2519L35.7448 14.6718L34.0023 12.2297L24.7804 18.8099L26.5229 21.2519ZM27.4549 23.7856L27.147 19.912L24.1564 20.1498L24.4644 24.0233L27.4549 23.7856ZM21.0646 24.6069L25.7123 25.3839L26.207 22.425L21.5593 21.648L21.0646 24.6069ZM18.9284 26.6709L22.1832 24.3485L20.4407 21.9064L17.1859 24.2288L18.9284 26.6709Z" fill="#222222"/>
</g>
<defs>
<clipPath id="clip0">
<rect width="100" height="100" fill="white"/>
</clipPath>
</defs>
</svg>
