<svg width="83" height="88" viewBox="0 0 83 88" fill="none" xmlns="http://www.w3.org/2000/svg">
<path d="M41.5 37.3117C31.6657 37.3117 22.6069 38.7951 15.8798 41.3085C12.5294 42.5603 9.57451 44.1351 7.39403 46.0613C5.21843 47.9831 3.5 50.5565 3.5 53.7018V67.9326C3.5 71.0778 5.21843 73.6513 7.39403 75.5731C9.57451 77.4992 12.5294 79.0741 15.8798 80.3259C22.6069 82.8393 31.6657 84.3227 41.5 84.3227C51.3343 84.3227 60.3931 82.8393 67.1202 80.3259C70.4706 79.0741 73.4255 77.4992 75.606 75.5731C77.7816 73.6513 79.5 71.0778 79.5 67.9326V53.7018C79.5 50.5565 77.7816 47.9831 75.606 46.0613C73.4255 44.1351 70.4706 42.5603 67.1202 41.3085C60.3931 38.7951 51.3343 37.3117 41.5 37.3117Z" stroke="#222222" stroke-width="7"/>
<path d="M76 53.3227C76 60.2323 60.5538 65.8337 41.5 65.8337C22.4462 65.8337 7 60.2323 7 53.3227C7 46.4131 22.4462 40.8117 41.5 40.8117C60.5538 40.8117 76 46.4131 76 53.3227Z" stroke="#222222" stroke-width="3"/>
<path d="M55 52C55 54.7614 48.9558 57 41.5 57C34.0442 57 28 54.7614 28 52C28 49.2386 34.0442 47 41.5 47C48.9558 47 55 49.2386 55 52Z" fill="#D74A6C"/>
<path d="M41.3961 6V46.7727M41.3961 46.7727L58.8701 29.2987M41.3961 46.7727L23.9221 29.2987" stroke="#58A3C2" stroke-width="11" stroke-linecap="round" stroke-linejoin="round"/>
</svg>
