<svg width="100" height="100" viewBox="0 0 100 100" fill="none" xmlns="http://www.w3.org/2000/svg">
<path d="M50 43.7711C41.4084 43.7711 33.4745 45.0663 27.5618 47.2754C24.6185 48.3751 21.9932 49.7688 20.0404 51.4937C18.0925 53.2144 16.5 55.5667 16.5 58.4798V70.8544C16.5 73.7676 18.0925 76.1199 20.0404 77.8405C21.9932 79.5655 24.6185 80.9592 27.5618 82.0589C33.4745 84.268 41.4084 85.5632 50 85.5632C58.5916 85.5632 66.5255 84.268 72.4382 82.0589C75.3814 80.9592 78.0068 79.5655 79.9596 77.8405C81.9075 76.1199 83.5 73.7676 83.5 70.8544V58.4798C83.5 55.5667 81.9075 53.2144 79.9596 51.4937C78.0068 49.7688 75.3814 48.3751 72.4382 47.2754C66.5255 45.0663 58.5916 43.7711 50 43.7711Z" stroke="#222222" stroke-width="7"/>
<path d="M80 58.1502C80 64.1586 66.5685 69.0293 50 69.0293C33.4315 69.0293 20 64.1586 20 58.1502C20 52.1418 33.4315 47.2711 50 47.2711C66.5685 47.2711 80 52.1418 80 58.1502Z" stroke="#222222" stroke-width="3"/>
<path d="M61.7391 57C61.7391 59.4013 56.4833 61.3479 50 61.3479C43.5167 61.3479 38.2609 59.4013 38.2609 57C38.2609 54.5988 43.5167 52.6522 50 52.6522C56.4833 52.6522 61.7391 54.5988 61.7391 57Z" fill="#D74A6C"/>
<path d="M49.9096 17V52.4545M49.9096 52.4545L65.1045 37.2597M49.9096 52.4545L34.7148 37.2597" stroke="#58A3C2" stroke-width="11" stroke-linecap="round" stroke-linejoin="round"/>
</svg>
