<svg width="100" height="100" viewBox="0 0 100 100" fill="none" xmlns="http://www.w3.org/2000/svg">
<path d="M61.1331 70.7305L72.6665 83.4769C74.7046 85.7293 78.1826 85.903 80.435 83.865C82.6874 81.827 82.8611 78.3489 80.8231 76.0965L69.7823 63.8946C67.4805 66.7927 64.5226 69.1462 61.1331 70.7305Z" fill="#222222"/>
<path d="M26.9921 56.5738C23.9165 56.784 21.2253 58.7469 20.0927 61.6301C18.9292 64.592 19.6317 67.9619 21.8819 70.212L29.4855 77.8156C30.9774 79.3075 32.9983 80.1497 35.1082 80.1587L35.1423 72.1587C35.1082 80.1587 35.1125 80.1587 35.1168 80.1587L35.1258 80.1587L35.1446 80.1587L35.1861 80.1587C35.2155 80.1585 35.2483 80.1583 35.2844 80.1578C35.3567 80.1569 35.4424 80.1551 35.5411 80.1521C35.7384 80.1461 35.988 80.1349 36.2866 80.1148C36.8837 80.0744 37.678 79.9981 38.6435 79.8546C40.5744 79.5675 43.195 79.0111 46.2928 77.935C49.8992 76.6822 54.1115 74.7385 58.6012 71.7419C56.209 72.5419 53.6489 72.9753 50.9876 72.9753C47.6367 72.9753 44.4462 72.2882 41.5495 71.0472C37.6015 72.1692 35.1423 72.1587 35.1423 72.1587L27.5387 64.5552C27.5387 64.5552 29.1924 64.4943 31.9272 63.8503C29.8648 61.7638 28.1823 59.3009 26.9921 56.5738Z" fill="#222222"/>
<path d="M58.2187 24.8405C61.3236 26.1362 64.0979 28.0657 66.38 30.4675C66.6553 27.5998 66.1415 25.9524 66.1415 25.9524L73.7451 33.5559C73.7451 33.5559 73.8208 33.7504 73.9097 34.1252C74.1553 35.1602 74.5018 37.5707 73.635 41.0618C74.5032 43.5429 74.9753 46.2102 74.9753 48.9877C74.9753 52.5038 74.2188 55.8433 72.8596 58.8521C78.1209 52.501 80.6655 46.7129 81.6639 41.8196C82.2732 38.8337 82.2757 36.3234 82.0591 34.4028C81.9514 33.4477 81.7909 32.6495 81.6301 32.0206C81.5498 31.7063 81.4695 31.4343 81.3957 31.2062C81.3588 31.0921 81.3235 30.989 81.2906 30.8969C81.2742 30.8509 81.2584 30.8076 81.2433 30.7671L81.2212 30.7084L81.2106 30.6807L81.2054 30.6672C81.2028 30.6606 81.2003 30.6541 74.04 33.4412L81.2002 30.654C80.7981 29.621 80.1858 28.6829 79.402 27.8991L71.7984 20.2955C69.1954 17.6925 65.1521 17.2018 62.002 19.1066C59.8907 20.3833 58.546 22.5152 58.2187 24.8405Z" fill="#222222"/>
<path fill-rule="evenodd" clip-rule="evenodd" d="M82.9753 48.9877C82.9753 66.6539 68.6539 80.9753 50.9877 80.9753C41.6457 80.9753 33.2391 76.9706 27.3909 70.5844C21.0047 64.7362 17 56.3296 17 46.9877C17 29.3214 31.3214 15 48.9877 15C58.3296 15 66.7362 19.0047 72.5844 25.3909C78.9706 31.2391 82.9753 39.6457 82.9753 48.9877ZM25.0822 48.9877C25.0278 48.3282 25 47.6612 25 46.9877C25 33.7396 35.7396 23 48.9877 23C49.6612 23 50.3282 23.0278 50.9877 23.0822C57.3123 23.6042 62.9412 26.5799 66.9202 31.0552C71.3954 35.0341 74.3711 40.663 74.8931 46.9877C74.9475 47.6471 74.9753 48.3141 74.9753 48.9877C74.9753 62.2357 64.2357 72.9753 50.9876 72.9753C50.3141 72.9753 49.6471 72.9475 48.9877 72.8931C42.663 72.3711 37.0341 69.3954 33.0552 64.9202C28.5799 60.9412 25.6042 55.3123 25.0822 48.9877Z" fill="#222222"/>
<path d="M53.5 45C57.6421 45 61 41.6421 61 37.5C61 37.4323 60.9991 37.3649 60.9973 37.2977C64.0715 40.1063 66 44.1481 66 48.6403C66 57.1232 59.1232 64 50.6403 64C46.073 64 41.9713 62.0065 39.1578 58.8422C35.9935 56.0287 34 51.927 34 47.3597C34 39.2102 40.3468 32.5431 48.3671 32.0316C46.9101 33.3997 46 35.3436 46 37.5C46 41.6421 49.3579 45 53.5 45Z" fill="#58A3C2"/>
<path d="M39.1579 58.8422C37.4812 57.3515 36.1333 55.4991 35.2365 53.4074L52.2506 53.1064C48.3047 56.5073 44.4385 58.8996 40.9793 60.5818C40.3257 60.0524 39.7164 59.4704 39.1579 58.8422Z" fill="#D74A6C"/>
<path d="M53.5 45C57.6421 45 61 41.6422 61 37.5C61 37.4324 60.9991 37.3649 60.9973 37.2977C63.7106 39.7766 65.5314 43.2161 65.9215 47.078L52.2506 53.1064L51.8203 44.8112C52.3603 44.9348 52.9225 45 53.5 45Z" fill="#D74A6C"/>
<path d="M60.3967 53.0601L56.5397 49.1392L60.3967 53.0601ZM31 68C31.199 73.4964 31.2016 73.4963 31.2042 73.4962C31.2052 73.4962 31.2079 73.4961 31.2098 73.496C31.2136 73.4959 31.2176 73.4957 31.2219 73.4955C31.2305 73.4952 31.24 73.4948 31.2504 73.4943C31.2712 73.4934 31.2956 73.4923 31.3236 73.4909C31.3797 73.488 31.4501 73.484 31.5345 73.4783C31.7031 73.4671 31.9276 73.4495 32.204 73.4222C32.7567 73.3675 33.5185 73.2736 34.4594 73.113C36.3399 72.792 38.9438 72.2029 42.0258 71.1227C48.2027 68.9577 56.2787 64.826 64.2536 56.9811L56.5397 49.1392C49.87 55.7001 43.2476 59.0383 38.3873 60.7418C35.9507 61.5958 33.9514 62.0406 32.6083 62.2699C31.9373 62.3844 31.4322 62.4448 31.121 62.4756C30.9654 62.491 30.8586 62.499 30.804 62.5026C30.7767 62.5044 30.7625 62.5052 30.7619 62.5052C30.7616 62.5052 30.7646 62.5051 30.7711 62.5048C30.7744 62.5046 30.7785 62.5045 30.7835 62.5043C30.786 62.5042 30.7887 62.5041 30.7916 62.504C30.793 62.5039 30.7954 62.5038 30.7961 62.5038C30.7985 62.5037 30.801 62.5036 31 68ZM64.2536 56.9811C72.2378 49.1272 75.6492 41.942 76.8923 36.3142C77.508 33.5269 77.5713 31.2106 77.4482 29.496C77.3869 28.6412 77.2795 27.9405 77.1735 27.4094C77.1205 27.1439 77.0678 26.9206 77.0213 26.7415C76.9981 26.6519 76.9764 26.5733 76.9569 26.506C76.9472 26.4723 76.9381 26.4414 76.9296 26.4134C76.9253 26.3994 76.9212 26.3861 76.9173 26.3734C76.9154 26.3671 76.9135 26.361 76.9116 26.3551C76.9107 26.3521 76.9093 26.3478 76.9088 26.3463C76.9075 26.342 76.9061 26.3378 71.6633 28C66.4206 29.6622 66.4192 29.6581 66.4179 29.654C66.4175 29.6526 66.4162 29.6486 66.4154 29.6459C66.4137 29.6406 66.4121 29.6355 66.4106 29.6304C66.4075 29.6204 66.4046 29.611 66.4019 29.6022C66.3965 29.5845 66.392 29.5691 66.3882 29.556C66.3807 29.5299 66.3762 29.5129 66.3741 29.5049C66.3699 29.4888 66.3755 29.5086 66.3863 29.5625C66.4078 29.6703 66.45 29.9146 66.4765 30.2837C66.5291 31.0169 66.5216 32.2646 66.1512 33.9416C65.4221 37.2424 63.2002 42.5873 56.5397 49.1392L64.2536 56.9811Z" fill="#222222"/>
</svg>
