<svg width="106" height="95" viewBox="0 0 106 95" fill="none" xmlns="http://www.w3.org/2000/svg">
<mask id="path-1-outside-1" maskUnits="userSpaceOnUse" x="14" y="5" width="66" height="66" fill="black">
<rect fill="white" x="14" y="5" width="66" height="66"/>
<path d="M71.9753 38.9877C71.9753 52.2357 61.2357 62.9753 47.9877 62.9753C34.7396 62.9753 24 52.2357 24 38.9877C24 25.7396 34.7396 15 47.9877 15C61.2357 15 71.9753 25.7396 71.9753 38.9877Z"/>
<path d="M69.9753 36.9877C69.9753 50.2357 59.2357 60.9753 45.9877 60.9753C32.7396 60.9753 22 50.2357 22 36.9877C22 23.7396 32.7396 13 45.9877 13C59.2357 13 69.9753 23.7396 69.9753 36.9877Z"/>
</mask>
<path d="M63.9753 38.9877C63.9753 47.8174 56.8174 54.9753 47.9877 54.9753V70.9753C65.6539 70.9753 79.9753 56.6539 79.9753 38.9877H63.9753ZM47.9877 54.9753C39.1579 54.9753 32 47.8174 32 38.9877H16C16 56.6539 30.3214 70.9753 47.9877 70.9753V54.9753ZM32 38.9877C32 30.1579 39.1579 23 47.9877 23V7C30.3214 7 16 21.3214 16 38.9877H32ZM47.9877 23C56.8174 23 63.9753 30.1579 63.9753 38.9877H79.9753C79.9753 21.3214 65.6539 7 47.9877 7V23ZM61.9753 36.9877C61.9753 45.8174 54.8174 52.9753 45.9877 52.9753V68.9753C63.6539 68.9753 77.9753 54.6539 77.9753 36.9877H61.9753ZM45.9877 52.9753C37.1579 52.9753 30 45.8174 30 36.9877H14C14 54.6539 28.3214 68.9753 45.9877 68.9753V52.9753ZM30 36.9877C30 28.1579 37.1579 21 45.9877 21V5C28.3214 5 14 19.3214 14 36.9877H30ZM45.9877 21C54.8174 21 61.9753 28.1579 61.9753 36.9877H77.9753C77.9753 19.3214 63.6539 5 45.9877 5V21Z" fill="#222222" mask="url(#path-1-outside-1)"/>
<mask id="mask0" mask-type="alpha" maskUnits="userSpaceOnUse" x="0" y="0" width="106" height="95">
<path fill-rule="evenodd" clip-rule="evenodd" d="M106 0H0V95H106V0ZM30.0552 54.9202C25.1133 50.5263 22 44.1206 22 36.9877C22 23.7396 32.7396 13 45.9877 13C53.1206 13 59.5263 16.1133 63.9202 21.0552C68.862 25.449 71.9753 31.8548 71.9753 38.9877C71.9753 52.2357 61.2357 62.9753 47.9877 62.9753C40.8548 62.9753 34.449 59.862 30.0552 54.9202Z" fill="#C4C4C4"/>
</mask>
<g mask="url(#mask0)">
<path d="M77.8231 66.0965C79.8612 68.3489 79.6874 71.827 77.435 73.865C75.1827 75.903 71.7046 75.7293 69.6665 73.4769L77.8231 66.0965ZM69.6665 73.4769L57.4036 59.9243L65.5602 52.5439L77.8231 66.0965L69.6665 73.4769Z" fill="#222222"/>
<path d="M24.3718 50.5586C22.7899 50.6247 21.395 51.6179 20.8157 53.0927C20.234 54.5736 20.5852 56.2585 21.7103 57.3836L29.3139 64.9872C30.0599 65.7331 31.0703 66.1542 32.1253 66.1587L32.1423 62.1587C32.1253 66.1587 32.1274 66.1587 32.1297 66.1587L32.1344 66.1587L32.1447 66.1587L32.1691 66.1587C32.1871 66.1586 32.2083 66.1584 32.2329 66.1581C32.2819 66.1575 32.3441 66.1563 32.4189 66.154C32.5685 66.1494 32.769 66.1406 33.0172 66.1238C33.5135 66.0903 34.2012 66.025 35.0554 65.898C36.7635 65.6441 39.1395 65.1433 41.9802 64.1565C47.6779 62.1771 55.184 58.2629 62.8778 50.5692C70.5664 42.8805 73.6964 36.1572 74.7447 31.0198C75.2655 28.4677 75.2567 26.3796 75.0843 24.851C74.9984 24.0894 74.8726 23.4724 74.7547 23.011C74.6958 22.7804 74.6388 22.5888 74.5899 22.4374C74.5654 22.3617 74.5429 22.296 74.5231 22.2406C74.5132 22.2129 74.504 22.1877 74.4956 22.1651L74.4835 22.1331L74.4779 22.1185L74.4753 22.1116C74.474 22.1083 74.4727 22.105 70.7451 23.5559L74.4727 22.105C74.2716 21.5885 73.9655 21.1194 73.5736 20.7275L65.97 13.1239C64.6685 11.8224 62.6468 11.5771 61.0718 12.5295C59.519 13.4684 58.7955 15.3326 59.3005 17.0688C59.3048 17.0863 59.3145 17.1277 59.3271 17.192C59.3579 17.3486 59.4059 17.6412 59.4353 18.058C59.494 18.8882 59.48 20.2256 59.0983 21.982C58.3434 25.4564 56.0906 30.8355 49.6174 37.3087C43.1376 43.7885 36.6901 47.0978 31.9362 48.7917C29.5541 49.6404 27.5919 50.0852 26.2602 50.3163C25.5947 50.4318 25.0882 50.4937 24.7674 50.5259C24.607 50.5421 24.4932 50.5508 24.4294 50.5551C24.3977 50.5572 24.3784 50.5583 24.3718 50.5586Z" stroke="#222222" stroke-width="8" stroke-linejoin="round"/>
</g>
<path d="M63 38.6403C63 47.1232 56.1232 54 47.6403 54C39.1574 54 32.2806 47.1232 32.2806 38.6403C32.2806 30.1574 39.1574 23.2806 47.6403 23.2806C56.1232 23.2806 63 30.1574 63 38.6403Z" fill="#58A3C2"/>
<path d="M61.7194 37.3597C61.7194 45.8426 54.8426 52.7194 46.3597 52.7194C37.8768 52.7194 31 45.8426 31 37.3597C31 28.8768 37.8768 22 46.3597 22C54.8426 22 61.7194 28.8768 61.7194 37.3597Z" fill="#58A3C2"/>
<path d="M32.2365 43.4074C33.1333 45.499 34.4812 47.3514 36.1579 48.8422C36.7164 49.4703 37.3257 50.0524 37.9793 50.5818C41.4385 48.8996 45.3047 46.5073 49.2506 43.1064L32.2365 43.4074Z" fill="#D74A6C"/>
<path fill-rule="evenodd" clip-rule="evenodd" d="M62.9215 37.078C62.524 33.1429 60.6411 29.6464 57.8422 27.1578C55.4041 24.4157 51.9986 22.5528 48.1611 22.1045L49.2506 43.1064L62.9215 37.078Z" fill="#D74A6C"/>
<circle cx="50.5" cy="27.5" r="7.5" fill="#E5E5E5"/>
<path d="M57.3967 43.0601L53.5397 39.1392L57.3967 43.0601ZM28 58C28.199 63.4964 28.2016 63.4963 28.2042 63.4962C28.2052 63.4962 28.2079 63.4961 28.2098 63.496C28.2136 63.4959 28.2176 63.4957 28.2219 63.4955C28.2305 63.4952 28.24 63.4948 28.2504 63.4943C28.2712 63.4934 28.2956 63.4923 28.3236 63.4909C28.3797 63.488 28.4501 63.484 28.5345 63.4783C28.7031 63.4671 28.9276 63.4495 29.204 63.4222C29.7567 63.3675 30.5185 63.2736 31.4594 63.113C33.3399 62.792 35.9438 62.2029 39.0258 61.1227C45.2027 58.9577 53.2787 54.826 61.2536 46.9811L53.5397 39.1392C46.87 45.7001 40.2476 49.0383 35.3873 50.7418C32.9507 51.5958 30.9514 52.0406 29.6083 52.2699C28.9373 52.3844 28.4322 52.4448 28.121 52.4756C27.9654 52.491 27.8586 52.499 27.804 52.5026C27.7767 52.5044 27.7625 52.5052 27.7619 52.5052C27.7616 52.5052 27.7646 52.5051 27.7711 52.5048C27.7744 52.5046 27.7785 52.5045 27.7835 52.5043C27.786 52.5042 27.7887 52.5041 27.7916 52.504C27.793 52.5039 27.7954 52.5038 27.7961 52.5038C27.7985 52.5037 27.801 52.5036 28 58ZM61.2536 46.9811C69.2378 39.1272 72.6492 31.942 73.8923 26.3142C74.508 23.5269 74.5713 21.2106 74.4482 19.496C74.3869 18.6412 74.2795 17.9405 74.1735 17.4094C74.1205 17.1439 74.0678 16.9206 74.0213 16.7415C73.9981 16.6519 73.9764 16.5733 73.9569 16.506C73.9472 16.4723 73.9381 16.4414 73.9296 16.4134C73.9253 16.3994 73.9212 16.3861 73.9173 16.3734C73.9154 16.3671 73.9135 16.361 73.9116 16.3551C73.9107 16.3521 73.9093 16.3478 73.9088 16.3463C73.9075 16.342 73.9061 16.3378 68.6633 18C63.4206 19.6622 63.4192 19.6581 63.4179 19.654C63.4175 19.6526 63.4162 19.6486 63.4154 19.6459C63.4137 19.6406 63.4121 19.6355 63.4106 19.6304C63.4075 19.6204 63.4046 19.611 63.4019 19.6022C63.3965 19.5845 63.392 19.5691 63.3882 19.556C63.3807 19.5299 63.3762 19.5129 63.3741 19.5049C63.3699 19.4888 63.3755 19.5086 63.3863 19.5625C63.4078 19.6703 63.45 19.9146 63.4765 20.2837C63.5291 21.0169 63.5216 22.2646 63.1512 23.9416C62.4221 27.2424 60.2002 32.5873 53.5397 39.1392L61.2536 46.9811Z" fill="#222222"/>
</svg>
