<svg width="100" height="100" viewBox="0 0 100 100" fill="none" xmlns="http://www.w3.org/2000/svg">
<path d="M61.6852 61.2688C61.6852 54.252 52.8848 43.5753 49.5 37.6296C46.3409 43.5753 37.3148 55.2052 37.3148 61.2688C37.3148 70.2121 44.6998 73.3148 49.5 73.3148C54.3002 73.3148 61.6852 69.5136 61.6852 61.2688Z" fill="#58A3C2"/>
<path d="M60.1833 31.318L44.8363 60.0935L67.7124 44.3875C65.5208 40.0062 62.866 35.5489 60.1833 31.318Z" fill="#D74A6C"/>
<path d="M73 61.7166C73 47.8499 56.0278 26.75 49.5 15C43.4074 26.75 26 49.7335 26 61.7166C26 79.3907 40.2424 85.5225 49.5 85.5225C58.7576 85.5225 73 78.0103 73 61.7166Z" stroke="#222222" stroke-width="11"/>
</svg>
