<svg width="66" height="99" viewBox="0 0 66 99" fill="none" xmlns="http://www.w3.org/2000/svg">
<path d="M47 65.1599C47 57.0981 36.8889 44.8312 33 38C29.3704 44.8312 19 58.1932 19 65.1599C19 75.4351 27.4849 79 33 79C38.5152 79 47 74.6326 47 65.1599Z" fill="#58A3C2"/>
<mask id="mask0" mask-type="alpha" maskUnits="userSpaceOnUse" x="6" y="12" width="54" height="82">
<path d="M60 65.6744C60 49.7424 41.1157 24.985 33 12C25.9664 24.985 5.99997 51.9066 6 65.6744C6.00005 85.9808 22.3636 93.0259 33 93.0259C43.6364 93.0259 60 84.3948 60 65.6744Z" fill="#58A3C2"/>
</mask>
<g mask="url(#mask0)">
<path d="M27.6417 63.8095L63.8916 38.9216L49.2835 23.2313L27.6417 63.8095Z" fill="#D74A6C"/>
</g>
<path d="M60 65.6744C60 49.7424 40.5 25.5 33 12C26 25.5 5.99997 51.9066 6 65.6744C6.00005 85.9808 22.3636 93.0259 33 93.0259C43.6364 93.0259 60 84.3948 60 65.6744Z" stroke="#222222" stroke-width="11"/>
</svg>
