<svg width="100" height="100" viewBox="0 0 100 100" fill="none" xmlns="http://www.w3.org/2000/svg">
<g clip-path="url(#clip0)">
<path d="M78.7597 91.209C86.02 85.4219 91.4013 77.6119 94.2229 68.7666C97.0446 59.9212 97.1799 50.4378 94.6118 41.5155C92.0437 32.5932 86.8875 24.6328 79.7953 18.641C72.703 12.6491 63.9933 8.89495 54.7674 7.85316L53.6067 18.1319C60.7996 18.9442 67.5902 21.8711 73.1196 26.5426C78.6491 31.2142 82.6691 37.4204 84.6713 44.3767C86.6735 51.3329 86.568 58.7266 84.3681 65.6229C82.1682 72.5191 77.9727 78.6082 72.3122 83.12L78.7597 91.209Z" fill="#D74A6C"/>
<path d="M51.4788 7.59825C44.2478 7.29317 37.0441 8.6642 30.4307 11.6042C23.8173 14.5442 17.9732 18.9736 13.3551 24.5462L21.3198 31.1466C24.9203 26.8019 29.4766 23.3486 34.6327 21.0564C39.7888 18.7642 45.4051 17.6953 51.0428 17.9332L51.4788 7.59825Z" fill="#58A3C2"/>
<path d="M9.98927 29.1508C6.36601 34.7982 3.99552 41.1568 3.03757 47.7979L13.2757 49.2747C14.0226 44.097 15.8707 39.1396 18.6956 34.7365L9.98927 29.1508Z" fill="#58A3C2"/>
<path d="M22.571 61.6833C42.9143 61.6833 74.6633 61.6833 74.6633 61.6833M40.5917 81.805V27.9468" stroke="#222222" stroke-width="8"/>
<circle cx="49.5" cy="54.4999" r="27.5876" stroke="#222222" stroke-width="11"/>
</g>
<defs>
<clipPath id="clip0">
<rect width="100" height="100" fill="white"/>
</clipPath>
</defs>
</svg>
