<svg width="128" height="128" viewBox="0 0 128 128" fill="none" xmlns="http://www.w3.org/2000/svg">
<path d="M93.9619 101.59C101.397 95.664 106.907 87.6666 109.796 78.6089C112.686 69.5513 112.824 59.8402 110.195 50.7038C107.565 41.5674 102.285 33.416 95.0224 27.2803C87.7599 21.1447 78.8411 17.3004 69.3938 16.2336L68.2053 26.7591C75.5708 27.5908 82.5243 30.588 88.1865 35.3716C93.8486 40.1553 97.9651 46.5105 100.015 53.6337C102.066 60.7569 101.958 68.328 99.7049 75.3898C97.4522 82.4516 93.1561 88.6868 87.3597 93.3069L93.9619 101.59Z" fill="#D74A6C"/>
<path d="M66.0263 15.9726C58.6217 15.6602 51.2452 17.0642 44.473 20.0747C37.7009 23.0853 31.7166 27.621 26.9877 33.3273L35.1435 40.0861C38.8303 35.6372 43.496 32.101 48.7759 29.7538C54.0558 27.4066 59.8068 26.312 65.5798 26.5556L66.0263 15.9726Z" fill="#58A3C2"/>
<path d="M23.541 38.0424C19.8308 43.8254 17.4034 50.3365 16.4225 57.137L26.9064 58.6493C27.6711 53.3473 29.5636 48.2709 32.4563 43.7622L23.541 38.0424Z" fill="#58A3C2"/>
<path d="M35.6923 71.5511C57.0771 71.5511 90.4516 71.5511 90.4516 71.5511M54.6356 92.7029V36.0874" stroke="#222222" stroke-width="8"/>
<circle cx="64" cy="64" r="28.3765" stroke="#222222" stroke-width="11"/>
</svg>
