<svg width="100" height="100" viewBox="0 0 100 100" fill="none" xmlns="http://www.w3.org/2000/svg">
<path d="M58.9367 15H86.7975V74.3165" stroke="#D74A6C" stroke-width="11" stroke-linecap="round" stroke-linejoin="round"/>
<path d="M41.8607 86L14 86L14 26.6835" stroke="#58A3C2" stroke-width="11" stroke-linecap="round" stroke-linejoin="round"/>
<path d="M28.6339 67.5092L40.036 24.9559L60.5488 76.0607L71.9509 33.5075" stroke="#222222" stroke-width="11" stroke-linecap="round" stroke-linejoin="round"/>
<path d="M66.2498 54.7841L60.5488 76.0607L55.4206 63.2845L50.2924 50.5083C50.2924 50.5083 55.2633 49.9127 56.2692 52.1098C56.9931 53.6909 57.5936 53.8518 58.7293 54.1562C60.0314 54.5051 61.4388 53.6334 61.9386 51.768C62.4384 49.9027 66.2498 54.7841 66.2498 54.7841Z" fill="#222222"/>
<path d="M34.3349 46.2326L40.0359 24.956L45.1642 37.7322L50.2924 50.5084C50.2924 50.5084 45.3214 51.104 44.3156 48.9069C43.5917 47.3257 42.9912 47.1648 41.8555 46.8605C40.5533 46.5116 39.1459 47.3833 38.6461 49.2486C38.1463 51.114 34.3349 46.2326 34.3349 46.2326Z" fill="#222222"/>
</svg>
