<svg width="93" height="91" viewBox="0 0 93 91" fill="none" xmlns="http://www.w3.org/2000/svg">
<path d="M56 6H87V72" stroke="#D74A6C" stroke-width="11" stroke-linecap="round" stroke-linejoin="round"/>
<path d="M37 85L6 85L6.00001 19" stroke="#58A3C2" stroke-width="11" stroke-linecap="round" stroke-linejoin="round"/>
<path d="M22.2828 64.4257L34.9696 17.0778L57.7937 73.9408L70.4806 26.5929" stroke="#222222" stroke-width="11" stroke-linecap="round" stroke-linejoin="round"/>
<path d="M64.1372 50.2669L57.7937 73.9409L52.0877 59.7251L46.3817 45.5093C46.3817 45.5093 51.9127 44.8466 53.0319 47.2912C53.8374 49.0505 54.5055 49.2296 55.7692 49.5682C57.2181 49.9564 58.784 48.9865 59.3402 46.911C59.8963 44.8355 64.1372 50.2669 64.1372 50.2669Z" fill="#222222"/>
<path d="M28.6262 40.7517L34.9696 17.0778L40.6756 31.2935L46.3817 45.5093C46.3817 45.5093 40.8506 46.1721 39.7314 43.7274C38.926 41.9681 38.2578 41.789 36.9941 41.4504C35.5452 41.0622 33.9793 42.0321 33.4232 44.1076C32.8671 46.1831 28.6262 40.7517 28.6262 40.7517Z" fill="#222222"/>
</svg>
