<svg width="100" height="100" viewBox="0 0 100 100" fill="none" xmlns="http://www.w3.org/2000/svg">
<path d="M55.4192 80.7983L59.4117 80.5531L59.4117 80.5531L55.4192 80.7983ZM52.6576 67.4059L55.172 70.5168L55.172 70.5168L52.6576 67.4059ZM62.2417 73.1563L58.5037 74.5803C59.0233 75.9443 60.2447 76.917 61.6904 77.1182C63.1361 77.3193 64.5766 76.717 65.4489 75.5467L62.2417 73.1563ZM75.7287 55.0043L75.2801 51.0295L75.2801 51.0295L75.7287 55.0043ZM84.8337 59.2918L82.3349 62.4152L82.3349 62.4152L84.8337 59.2918ZM89.9914 72.2303L86.0458 72.8879L86.0458 72.8879L89.9914 72.2303ZM70.8231 92.3824L71.774 96.2677L71.774 96.2677L70.8231 92.3824ZM60.9757 89.9286L63.5723 86.886L63.5723 86.886L60.9757 89.9286ZM82.3241 82.2937L85.3125 84.9526L85.3125 84.9526L82.3241 82.2937ZM68.7599 67.5105C67.4625 69.2985 67.8602 71.7998 69.6482 73.0972C71.4363 74.3946 73.9375 73.9969 75.2349 72.2088L68.7599 67.5105ZM74.6382 69.7144C73.2487 71.4318 73.5145 73.9505 75.2319 75.34C76.9493 76.7295 79.468 76.4637 80.8575 74.7463L74.6382 69.7144ZM78.6035 73.3611C77.1287 75.0058 77.2663 77.5347 78.911 79.0096C80.5557 80.4845 83.0846 80.3468 84.5595 78.7021L78.6035 73.3611ZM67.9974 46.8C67.9974 62.323 55.4135 74.9068 39.8906 74.9068V82.9068C59.8318 82.9068 75.9974 66.7412 75.9974 46.8H67.9974ZM39.8906 74.9068C24.3676 74.9068 11.7838 62.323 11.7838 46.8H3.78375C3.78375 66.7412 19.9493 82.9068 39.8906 82.9068V74.9068ZM11.7838 46.8C11.7838 31.277 24.3676 18.6932 39.8906 18.6932V10.6932C19.9493 10.6932 3.78375 26.8588 3.78375 46.8H11.7838ZM39.8906 18.6932C55.4135 18.6932 67.9974 31.277 67.9974 46.8H75.9974C75.9974 26.8588 59.8318 10.6932 39.8906 10.6932V18.6932ZM26.0445 46.3719C26.0445 46.9999 25.5354 47.509 24.9074 47.509V55.509C29.9537 55.509 34.0445 51.4182 34.0445 46.3719H26.0445ZM24.9074 47.509C24.2794 47.509 23.7703 46.9999 23.7703 46.3719H15.7703C15.7703 51.4182 19.8612 55.509 24.9074 55.509V47.509ZM23.7703 46.3719C23.7703 45.7439 24.2794 45.2348 24.9074 45.2348V37.2348C19.8612 37.2348 15.7703 41.3256 15.7703 46.3719H23.7703ZM24.9074 45.2348C25.5354 45.2348 26.0445 45.7439 26.0445 46.3719H34.0445C34.0445 41.3256 29.9537 37.2348 24.9074 37.2348V45.2348ZM54.2985 46.3719C54.2985 46.9999 53.7894 47.509 53.1614 47.509V55.509C58.2077 55.509 62.2985 51.4182 62.2985 46.3719H54.2985ZM53.1614 47.509C52.5334 47.509 52.0243 46.9999 52.0243 46.3719H44.0243C44.0243 51.4182 48.1151 55.509 53.1614 55.509V47.509ZM52.0243 46.3719C52.0243 45.7439 52.5334 45.2348 53.1614 45.2348V37.2348C48.1151 37.2348 44.0243 41.3256 44.0243 46.3719H52.0243ZM53.1614 45.2348C53.7894 45.2348 54.2985 45.7439 54.2985 46.3719H62.2985C62.2985 41.3256 58.2077 37.2348 53.1614 37.2348V45.2348ZM24.121 61.91C25.8542 63.2966 28.1943 64.1673 30.4437 64.7184C32.7839 65.2919 35.4317 65.6161 38.0894 65.6752C43.1786 65.7883 49.2827 64.9438 53.3459 62.0415L48.696 55.5316C46.766 56.9102 42.81 57.7781 38.2671 57.6772C36.1088 57.6292 34.0475 57.3648 32.3477 56.9483C30.557 56.5095 29.5259 55.9889 29.1186 55.6631L24.121 61.91ZM46.0228 58.1317C46.9267 60.3914 48.7919 61.9076 50.5568 62.7018C52.2387 63.4587 54.761 63.9572 57.0908 62.7924L53.513 55.6369C53.6871 55.5499 53.8332 55.5122 53.9271 55.496C54.0199 55.48 54.0731 55.4829 54.0798 55.4833C54.0831 55.4835 53.991 55.4745 53.8397 55.4064C53.6927 55.3403 53.568 55.2532 53.4864 55.1754C53.4043 55.0971 53.4184 55.0801 53.4506 55.1605L46.0228 58.1317ZM59.4117 80.5531C59.1458 76.2231 57.3557 72.7347 56.4494 70.7344C56.2083 70.2021 56.0407 69.8097 55.9254 69.4891C55.8078 69.1621 55.7949 69.0444 55.7971 69.0642C55.8021 69.1087 55.8242 69.3884 55.6822 69.7671C55.5313 70.1697 55.2958 70.4166 55.172 70.5168L50.1431 64.295C49.3034 64.9737 48.6041 65.8577 48.1913 66.959C47.7873 68.0366 47.7494 69.0767 47.846 69.9467C48.0188 71.5038 48.7051 73.0264 49.1624 74.0358C50.247 76.4298 51.2694 78.4804 51.4268 81.0434L59.4117 80.5531ZM55.172 70.5168C55.6004 70.1705 55.6473 70.3075 55.4377 70.2851C55.352 70.276 55.5461 70.2682 56.0109 70.6757C57.0085 71.5501 57.9873 73.2248 58.5037 74.5803L65.9796 71.7324C65.2181 69.7334 63.6411 66.7255 61.2841 64.6596C60.0717 63.5969 58.3889 62.5546 56.2866 62.3303C54.0603 62.0927 51.9509 62.8338 50.1431 64.295L55.172 70.5168ZM65.4489 75.5467C68.0592 72.0444 70.7173 67.1887 72.7835 63.8575C73.8959 62.064 74.8499 60.6721 75.6761 59.7346C76.6597 58.6184 76.8074 58.9079 76.1774 58.979L75.2801 51.0295C72.7017 51.3206 70.8094 53.157 69.674 54.4455C68.3811 55.9126 67.1371 57.7832 65.985 59.6407C63.5222 63.6114 61.3852 67.6119 59.0344 70.766L65.4489 75.5467ZM76.1774 58.979C76.603 58.931 76.8326 58.9474 76.9135 58.9581C76.9901 58.9683 76.8695 58.9645 76.6531 58.8429C76.4183 58.7109 76.1703 58.4949 75.9784 58.2018C75.7957 57.9227 75.7288 57.674 75.7057 57.536C75.684 57.4068 75.6972 57.3587 75.6906 57.417C75.6845 57.4716 75.6657 57.5773 75.6191 57.7306C75.5214 58.0514 75.3581 58.3971 75.1973 58.6584L82.0106 62.8511C82.4888 62.0741 82.9539 61.1064 83.2724 60.0601C83.5776 59.0572 83.8413 57.6788 83.5955 56.213C83.3235 54.5904 82.4116 52.9028 80.5737 51.8694C78.9251 50.9426 77.0333 50.8316 75.2801 51.0295L76.1774 58.979ZM81.4324 63.5832C81.5275 63.4881 81.727 63.3176 82.0059 63.1387C82.282 62.9617 82.5538 62.8293 82.7784 62.7521C83.0141 62.6712 83.0777 62.6917 82.9909 62.6865C82.858 62.6785 82.5869 62.6168 82.3349 62.4152L87.3324 56.1683C84.828 54.1648 81.9257 54.5864 80.1801 55.1859C78.3854 55.8021 76.7971 56.9048 75.7755 57.9263L81.4324 63.5832ZM82.3349 62.4152C82.2972 62.3851 82.1598 62.267 82.013 62.0381C81.8584 61.797 81.7371 61.5005 81.6802 61.1741C81.5714 60.5494 81.7556 60.1686 81.7136 60.2731C81.6639 60.3963 81.5606 60.5898 81.2576 61.1124C81.0159 61.5291 80.6033 62.2288 80.2852 62.9922L87.6699 66.0691C87.7511 65.8741 87.8848 65.6314 88.1781 65.1257C88.4099 64.7259 88.8301 64.017 89.1343 63.2618C89.446 62.4878 89.8143 61.2526 89.5615 59.8013C89.2885 58.2341 88.4052 57.0265 87.3324 56.1683L82.3349 62.4152ZM86.1964 67.8588C85.9764 68.0055 85.7974 68.077 85.703 68.1094C85.6033 68.1437 85.5402 68.1543 85.521 68.1571C85.4898 68.1617 85.5205 68.1548 85.5837 68.1646C85.6441 68.1739 85.658 68.1867 85.6259 68.1698C85.5872 68.1494 85.4715 68.0784 85.3538 67.9214L91.7538 63.1214C90.3718 61.2788 88.3777 60.5011 86.8039 60.2582C85.3697 60.0368 83.3745 60.1253 81.7588 61.2024L86.1964 67.8588ZM85.3538 67.9214C85.1976 67.7132 85.0539 67.4378 84.9692 67.11C84.8858 66.7877 84.8814 66.5003 84.9047 66.2836C84.9454 65.9046 85.0692 65.7537 84.9759 65.9165C84.8906 66.0653 84.7589 66.2516 84.4964 66.6042C84.3872 66.7508 84.2268 66.9649 84.0818 67.1728C83.9437 67.3708 83.7283 67.6912 83.5384 68.0708L90.6939 71.6485C90.6158 71.8046 90.5647 71.8497 90.9129 71.3821C91.1446 71.071 91.5581 70.5201 91.916 69.8959C92.5525 68.7857 93.8476 65.9132 91.7538 63.1214L85.3538 67.9214ZM88.6918 73.5363C88.1622 73.7632 87.3093 73.8117 86.5636 73.2992C85.9006 72.8435 85.9626 72.3885 86.0458 72.8879L93.937 71.5727C93.6368 69.772 92.8202 67.892 91.095 66.7063C89.2871 65.4637 87.1882 65.4769 85.5405 66.1831L88.6918 73.5363ZM69.8723 88.497C67.455 89.0886 65.5642 88.5859 63.5723 86.886L58.379 92.9712C62.1376 96.1789 66.6254 97.5277 71.774 96.2677L69.8723 88.497ZM63.5723 86.886C62.2134 85.7262 61.1291 84.165 60.3686 82.704C59.9957 81.9878 59.7279 81.3477 59.5589 80.8711C59.3431 80.2623 59.3908 80.2118 59.4117 80.5531L51.4268 81.0434C51.4791 81.8952 51.7701 82.8428 52.0186 83.5437C52.3138 84.3767 52.7309 85.3578 53.2726 86.3982C54.341 88.4504 56.0036 90.9439 58.379 92.9712L63.5723 86.886ZM86.0458 72.8879C85.9647 72.4012 86.009 72.0208 86.0442 71.8213C86.0808 71.614 86.1294 71.482 86.1434 71.4453C86.167 71.3834 86.147 71.451 86.006 71.6808C85.7285 72.133 85.2449 72.7937 84.541 73.6627C83.1411 75.3909 81.2578 77.4745 79.3357 79.6348L85.3125 84.9526C87.1451 82.8928 89.2067 80.6126 90.7575 78.6981C91.5289 77.7458 92.272 76.7653 92.8246 75.8649C93.0987 75.4182 93.3945 74.8816 93.6163 74.301C93.8012 73.8171 94.1403 72.7927 93.937 71.5727L86.0458 72.8879ZM79.3357 79.6348C77.321 81.8992 75.6271 83.9551 73.8443 85.7014C72.0247 87.4837 70.7382 88.2851 69.8723 88.497L71.774 96.2677C74.8487 95.5153 77.4353 93.3824 79.4423 91.4164C81.4862 89.4145 83.5724 86.9082 85.3125 84.9526L79.3357 79.6348ZM75.3665 58.4056L68.7599 67.5105L75.2349 72.2088L81.8415 63.1039L75.3665 58.4056ZM80.8679 62.0147L74.6382 69.7144L80.8575 74.7463L87.0872 67.0466L80.8679 62.0147ZM84.1382 67.1892L78.6035 73.3611L84.5595 78.7021L90.0941 72.5302L84.1382 67.1892Z" fill="#222222"/>
<circle cx="39.8906" cy="46.8" r="32.1068" fill="#58A3C2" stroke="#222222" stroke-width="3"/>
<circle cx="24.9074" cy="46.3719" r="5.13709" fill="#222222"/>
<circle cx="53.1614" cy="46.3719" r="5.13709" fill="#222222"/>
<path d="M26.6198 58.7866C30.9007 62.2113 45.0277 63.0675 51.021 58.7866M49.7367 56.6461C50.5929 58.7866 53.5895 60.0708 55.3019 59.2147" stroke="#222222" stroke-width="3"/>
<path d="M52.6575 67.4059C49.7941 69.7203 54.9959 73.9052 55.4192 80.7983C55.4819 81.8192 57.2412 86.7416 60.9756 89.9286C63.8509 92.3824 67.0401 93.3082 70.8231 92.3824C74.7637 91.418 78.5693 86.5137 82.324 82.2937C86.0788 78.0737 90.214 73.5661 89.9913 72.2304C89.608 69.9302 88.2342 69.3805 87.1161 69.8597C87.5953 68.9013 89.7038 67.0549 88.5537 65.5215C87.4036 63.988 84.9359 63.8917 83.9775 64.5307C84.7762 62.6138 86.7504 60.8253 84.8336 59.2918C82.9168 57.7583 79.8818 59.4769 78.6039 60.7548C79.8818 58.6782 81.0755 54.4008 75.7287 55.0043C71.8318 55.4442 67.2027 66.4999 62.2416 73.1564C60.9637 69.8019 57.1298 63.7911 52.6575 67.4059Z" fill="#D74A6C"/>
<path d="M78.6039 60.7548C79.8818 58.6782 81.0755 54.4008 75.7287 55.0043C71.8318 55.4442 67.2027 66.4999 62.2416 73.1564C60.9637 69.8019 57.1298 63.7911 52.6575 67.4059C49.7941 69.7203 54.9959 73.9052 55.4192 80.7983C55.4819 81.8192 57.2412 86.7416 60.9756 89.9286C63.8509 92.3824 67.0401 93.3082 70.8231 92.3824C74.7637 91.418 78.5693 86.5137 82.324 82.2937C86.0788 78.0737 90.214 73.5661 89.9913 72.2304C89.608 69.9302 88.2342 69.3805 87.1161 69.8597M78.6039 60.7548C79.8818 59.4769 82.9168 57.7583 84.8336 59.2918C86.7504 60.8253 84.7762 62.6138 83.9775 64.5307M78.6039 60.7548L71.9974 69.8597M83.9775 64.5307C84.9359 63.8917 87.4036 63.988 88.5537 65.5215C89.7038 67.0549 87.5953 68.9013 87.1161 69.8597M83.9775 64.5307L77.7478 72.2304M87.1161 69.8597L81.5815 76.0316" stroke="#222222" stroke-width="3" stroke-linecap="round" stroke-linejoin="round"/>
</svg>
