<svg width="75" height="99" viewBox="0 0 75 99" fill="none" xmlns="http://www.w3.org/2000/svg">
<mask id="path-1-inside-1" fill="white">
<path d="M0.00808354 70.867C-0.00510824 70.8472 -0.00206408 70.8399 0.0165568 70.8445L23.3691 8.83943L37.4663 0L51.5635 8.83943L74.9245 70.867L37.4663 98.6586C37.4663 98.6586 0.907602 71.0657 0.0165568 70.8445L0.00808354 70.867Z"/>
</mask>
<path d="M0.00808354 70.867L-9.14489 76.9681C-6.85684 80.4007 -2.84053 82.2645 1.25803 81.7958C5.35659 81.327 8.84834 78.6045 10.3023 74.7439L0.00808354 70.867ZM37.4663 98.6586L30.8396 107.439C34.7348 110.378 40.1014 110.401 44.0206 107.493L37.4663 98.6586ZM74.9245 70.867L81.4789 79.7011C85.4237 76.7743 86.9499 71.5868 85.2187 66.99L74.9245 70.867ZM51.5635 8.83943L61.8576 4.96242C61.0094 2.71028 59.446 0.79845 57.4071 -0.480014L51.5635 8.83943ZM37.4663 0L43.3099 -9.31945C39.7364 -11.5602 35.1962 -11.5602 31.6227 -9.31945L37.4663 0ZM23.3691 8.83943L17.5255 -0.480015C15.4866 0.79845 13.9232 2.71028 13.075 4.96243L23.3691 8.83943ZM9.16106 64.766C9.37083 65.0807 9.87753 65.8672 10.2964 66.9804C10.5575 67.6742 11.7618 70.9242 10.2621 74.8086C8.28544 79.9283 3.72643 81.4558 1.4065 81.7537C-0.609738 82.0126 -2.17639 81.634 -2.63416 81.5204L2.66728 60.1687C2.20019 60.0527 0.626178 59.6733 -1.39546 59.9329C-3.72078 60.2315 -8.28322 61.7612 -10.2613 66.8847C-11.7625 70.7728 -10.5576 74.028 -10.294 74.7286C-9.87252 75.8486 -9.36126 76.6435 -9.14489 76.9681L9.16106 64.766ZM-2.6332 81.5206C-3.5523 81.2925 -4.22755 80.9943 -4.44524 80.897C-4.74787 80.7617 -4.97932 80.641 -5.10301 80.5749C-5.35079 80.4424 -5.5233 80.3363 -5.56592 80.31C-5.66779 80.2473 -5.68974 80.2298 -5.57942 80.3045C-5.38191 80.4381 -5.03501 80.6804 -4.51595 81.0514C-3.4968 81.7801 -2.0466 82.8385 -0.281477 84.1392C3.23663 86.7316 7.86304 90.1813 12.4831 93.6402C17.0984 97.0954 21.6879 100.545 25.1249 103.132C26.843 104.426 28.2724 105.503 29.2719 106.256C29.7717 106.633 30.1639 106.929 30.4311 107.13C30.5647 107.231 30.667 107.308 30.7358 107.36C30.7702 107.386 30.7963 107.406 30.8137 107.419C30.8223 107.425 30.8289 107.43 30.8332 107.434C30.8354 107.435 30.837 107.437 30.8381 107.437C30.8386 107.438 30.839 107.438 30.8393 107.438C30.8395 107.438 30.8396 107.439 37.4663 98.6586C44.093 89.8787 44.0928 89.8786 44.0925 89.8783C44.0922 89.8781 44.0918 89.8778 44.0912 89.8773C44.09 89.8765 44.0883 89.8752 44.0861 89.8735C44.0816 89.8701 44.0748 89.865 44.066 89.8583C44.0482 89.8449 44.0218 89.8249 43.987 89.7987C43.9174 89.7462 43.8143 89.6684 43.6799 89.567C43.4111 89.3643 43.0171 89.0671 42.5155 88.6889C41.5122 87.9326 40.0785 86.8522 38.3553 85.5552C34.9097 82.9617 30.3038 79.4995 25.668 76.0288C21.0371 72.5618 16.3567 69.0718 12.7695 66.4284C10.9819 65.1111 9.42976 63.9775 8.27905 63.1549C7.71319 62.7503 7.18328 62.3771 6.74737 62.0822C6.54098 61.9426 6.26317 61.7576 5.97068 61.5775C5.83276 61.4926 5.58126 61.3403 5.27136 61.1746C5.1166 61.0918 4.8583 60.9578 4.53311 60.8124C4.29287 60.705 3.59933 60.4 2.66631 60.1684L-2.6332 81.5206ZM44.0206 107.493L81.4789 79.7011L68.3702 62.0329L30.912 89.8245L44.0206 107.493ZM85.2187 66.99L61.8576 4.96242L41.2694 12.7164L64.6304 74.744L85.2187 66.99ZM57.4071 -0.480014L43.3099 -9.31945L31.6227 9.31945L45.7199 18.1589L57.4071 -0.480014ZM31.6227 -9.31945L17.5255 -0.480015L29.2127 18.1589L43.3099 9.31945L31.6227 -9.31945ZM13.075 4.96243L-10.2776 66.9675L10.3107 74.7215L33.6632 12.7164L13.075 4.96243ZM-10.2776 66.9677L-10.2861 66.9902L10.3023 74.7439L10.3107 74.7214L-10.2776 66.9677Z" fill="#222222" mask="url(#path-1-inside-1)"/>
<path d="M74.9245 70.867L37.4663 98.6586V0L51.5635 8.83943L74.9245 70.867Z" fill="#58A3C2"/>
<mask id="mask0" mask-type="alpha" maskUnits="userSpaceOnUse" x="37" y="0" width="38" height="99">
<path d="M74.9245 70.867L37.4663 98.6586V0L51.5635 8.83943L74.9245 70.867Z" fill="#58A3C2"/>
</mask>
<g mask="url(#mask0)">
<path d="M37.4663 -9.28551L62.8044 8.26373L13.348 105.042L37.4663 -9.28551Z" fill="#D74A6C"/>
</g>
</svg>
