<svg width="115" height="115" viewBox="0 0 115 115" fill="none" xmlns="http://www.w3.org/2000/svg">
<rect x="57.5" y="7.77817" width="70.3173" height="70.3173" rx="7.5" transform="rotate(45 57.5 7.77817)" stroke="#222222" stroke-width="11"/>
<mask id="mask0" mask-type="alpha" maskUnits="userSpaceOnUse" x="26" y="33" width="64" height="49">
<path d="M62.6974 58.4146C64.4511 64.6341 67.5828 76.1951 67.5828 77.0732C66.0989 78.8789 62.7842 79.9716 58 79.9995C53.2158 79.9716 49.9011 78.8789 48.4172 77.0732C48.4172 76.1951 51.5489 64.6341 53.3026 58.4146L48.793 57.3171L41.2771 62.439L37.1433 57.3171L28.5 58.7805C30.2328 50.8194 31.8678 47.3787 37.1433 44.878C43.1381 49.283 46.2544 49.8153 53.1752 50L54.3026 46.7073C51.6634 45.2873 50.8121 45.124 48.4172 43.4146C49.5794 39.1744 50.6411 37.4492 52.9268 35H63.0733C65.359 37.4492 66.4206 39.1744 67.5828 43.4146C65.1879 45.124 64.3366 45.2873 61.6974 46.7073L62.8248 50C69.7456 49.8153 72.8619 49.283 78.8567 44.878C84.1322 47.3787 85.7672 50.8194 87.5 58.7805L78.8567 57.3171L74.7229 62.439L67.207 57.3171L62.6974 58.4146Z" fill="#58A3C2"/>
<path d="M57.8121 80C62.6974 80 66.0796 78.9024 67.5828 77.0732C67.5828 76.1951 64.4511 64.6341 62.6974 58.4146L67.207 57.3171L74.7229 62.439L78.8567 57.3171L87.5 58.7805C85.7672 50.8194 84.1322 47.3787 78.8567 44.878C72.8619 49.283 69.7456 49.8153 62.8248 50L61.6974 46.7073C64.3366 45.2873 65.1879 45.124 67.5828 43.4146C66.4206 39.1744 65.359 37.4492 63.0733 35H52.9268C50.6411 37.4492 49.5794 39.1744 48.4172 43.4146C50.8121 45.124 51.6634 45.2873 54.3026 46.7073L53.1752 50C46.2544 49.8153 43.1381 49.283 37.1433 44.878C31.8678 47.3787 30.2328 50.8194 28.5 58.7805L37.1433 57.3171L41.2771 62.439L48.793 57.3171L53.3026 58.4146C51.5489 64.6341 48.4172 76.1951 48.4172 77.0732C49.9204 78.9024 53.3026 80 58.1879 80" stroke="#58A3C2" stroke-width="3"/>
</mask>
<g mask="url(#mask0)">
<rect x="17.5" y="23" width="80" height="70" fill="#58A3C2"/>
<path d="M60.5 26H122.5V88H60.5V26Z" fill="#D74A6C"/>
</g>
</svg>
