<svg width="100" height="100" viewBox="0 0 100 100" fill="none" xmlns="http://www.w3.org/2000/svg">
<path d="M60.3178 74.349C60.3178 73.3608 56.7935 60.3501 54.8199 53.3507L59.8949 52.1155L68.3533 57.8798L73.0054 52.1155L82.7326 53.7625C80.7824 44.803 78.9425 40.9309 73.0054 38.1167C66.2589 43.0741 62.7519 43.673 54.9632 43.8809L53.6945 40.1754C54.6575 39.6572 55.409 39.2877 56.0767 38.9594C57.4685 38.2752 58.4965 37.7698 60.3178 36.4698C59.0099 31.6978 57.8151 29.7564 55.2428 27H43.824C41.2517 29.7564 40.0569 31.6978 38.7489 36.4698C40.5703 37.7698 41.5983 38.2752 42.99 38.9594C43.6578 39.2877 44.4093 39.6572 45.3723 40.1754L44.1036 43.8809C36.3149 43.673 32.8079 43.0741 26.0614 38.1167C20.1243 40.9309 18.2844 44.803 16.3342 53.7625L26.0614 52.1155L30.7135 57.8798L39.1719 52.1155L44.2469 53.3507C42.2733 60.3501 38.7489 73.3608 38.7489 74.349C40.4189 76.3811 44.1493 77.6109 49.5334 77.6422C54.9175 77.6109 58.6479 76.3811 60.3178 74.349Z" fill="#D74A6C"/>
<path d="M60.3179 74.3489C60.3179 73.3608 56.7935 60.3501 54.8199 53.3507L52.6945 47.7606L54.9632 43.8809L53.6945 40.1754C56.6646 38.5773 57.6226 38.3935 60.3179 36.4698C59.0099 31.6978 57.8151 29.7564 55.2428 27H43.824C41.2517 29.7564 40.0569 31.6978 38.7489 36.4698C41.4442 38.3935 42.4022 38.5773 45.3723 40.1754L44.1036 43.8809L46.3723 47.7606L44.2469 53.3507C42.2733 60.3501 38.7489 73.3608 38.7489 74.3489C40.4189 76.3811 44.1493 77.6109 49.5334 77.6422C54.9175 77.6109 58.6479 76.3811 60.3179 74.3489Z" fill="#58A3C2"/>
<path fill-rule="evenodd" clip-rule="evenodd" d="M49.3219 77.6403C44.0516 77.5784 40.3969 76.3544 38.7489 74.349C38.7489 73.6675 40.4253 67.2675 42.1131 61.0649C42.2557 60.5411 42.3983 60.0187 42.54 59.5013C42.7012 58.9127 42.8612 58.3305 43.0185 57.7601C43.4598 56.1598 43.8802 54.6515 44.2469 53.3507L39.1719 52.1155L35.6073 54.5447L30.7135 57.8798L26.0614 52.1155L24.8993 52.3123L16.3342 53.7625C17.1117 50.1907 17.8716 47.4275 18.8806 45.2175C20.4025 41.8839 22.4912 39.809 26.0614 38.1167C28.8383 40.1572 31.0664 41.4593 33.2701 42.2996C33.6217 42.4337 33.9727 42.556 34.3252 42.6677C36.2667 43.2829 38.2539 43.5756 40.6429 43.7335C41.5011 43.7903 42.4112 43.8296 43.3897 43.8603C43.6236 43.8676 43.8615 43.8745 44.1036 43.8809L45.3723 40.1754C44.9508 39.9486 44.5698 39.7502 44.2186 39.5714C43.7675 39.3417 43.3655 39.144 42.9901 38.9594L42.99 38.9594C41.5983 38.2752 40.5703 37.7698 38.7489 36.4698C38.8374 36.1471 38.9253 35.8374 39.0132 35.5394C40.2248 31.4315 41.4256 29.57 43.824 27H55.2428C57.6412 29.57 58.842 31.4315 60.0536 35.5394C60.1415 35.8374 60.2294 36.1471 60.3179 36.4698C58.4965 37.7698 57.4685 38.2752 56.0767 38.9594C55.7013 39.144 55.2993 39.3417 54.8482 39.5714C54.497 39.7502 54.116 39.9486 53.6945 40.1754L54.9632 43.8809C55.2052 43.8745 55.4431 43.8676 55.6771 43.8603C56.6556 43.8296 57.5657 43.7903 58.4239 43.7335C60.8129 43.5756 62.8001 43.2829 64.7416 42.6677C65.0941 42.556 65.4451 42.4337 65.7967 42.2996C68.0004 41.4593 70.2285 40.1572 73.0054 38.1167C76.5756 39.809 78.6643 41.8839 80.1862 45.2175C81.1952 47.4275 81.9551 50.1907 82.7326 53.7625L74.1675 52.3123L73.0054 52.1155L68.3533 57.8798L63.4595 54.5448L59.8949 52.1155L54.8199 53.3507C55.1866 54.6515 55.607 56.1598 56.0483 57.7601C56.2056 58.3305 56.3656 58.9127 56.5268 59.5013C56.6685 60.0187 56.8111 60.5411 56.9536 61.0649C58.6415 67.2675 60.3179 73.6675 60.3179 74.349C58.6699 76.3544 55.0152 77.5784 49.7449 77.6403C49.6747 77.6411 49.6042 77.6418 49.5334 77.6422C49.4626 77.6418 49.3921 77.6411 49.3219 77.6403ZM66.4642 65.6551C66.8639 67.18 67.2227 68.5781 67.5046 69.7239C67.6921 70.4858 67.8583 71.1874 67.9822 71.761C68.0431 72.0429 68.107 72.3546 68.1596 72.6572C68.1605 72.6625 68.1617 72.6693 68.1632 72.6775C68.1918 72.8388 68.3179 73.5495 68.3179 74.349C68.3179 76.2016 67.6749 77.9968 66.4986 79.4281C64.3396 82.0555 61.4052 83.5402 58.6984 84.3836C55.9269 85.2473 52.8203 85.6232 49.5799 85.642C49.5631 85.6421 49.5463 85.6422 49.5294 85.6422C49.5152 85.6422 49.501 85.6421 49.4868 85.642C46.2465 85.6232 43.1399 85.2473 40.3683 84.3836C37.6616 83.5402 34.7272 82.0555 32.5681 79.4281C31.3919 77.9968 30.7489 76.2016 30.7489 74.349C30.7489 73.5495 30.875 72.8388 30.9036 72.6775C30.905 72.6693 30.9062 72.6625 30.9072 72.6572C30.9598 72.3546 31.0237 72.0429 31.0846 71.761C31.2085 71.1874 31.3747 70.4858 31.5622 69.7239C31.8441 68.5781 32.2028 67.18 32.6026 65.6551C29.6734 66.366 26.4842 65.3774 24.488 62.9041L22.778 60.7853L17.6697 61.6502C15.0502 62.0937 12.3815 61.2079 10.5471 59.286C8.71279 57.3641 7.95221 54.657 8.51726 52.061C9.50603 47.5183 10.6631 43.1969 12.8205 39.5565C15.2179 35.5112 18.4944 32.8503 22.6347 30.8877C25.2928 29.6278 28.428 29.9282 30.7984 31.67C31.0927 31.8862 31.3747 32.0891 31.6454 32.2796C32.236 30.4295 32.9156 28.7379 33.801 27.1266C35.0318 24.8866 36.4625 23.1628 37.9752 21.5418C39.4883 19.9205 41.6064 19 43.824 19H55.2428C57.4604 19 59.5786 19.9205 61.0916 21.5418C62.6044 23.1628 64.0351 24.8866 65.2659 27.1267C66.1512 28.738 66.8308 30.4295 67.4214 32.2796C67.6921 32.0891 67.9741 31.8862 68.2684 31.67C70.6388 29.9282 73.774 29.6278 76.432 30.8877C80.5724 32.8503 83.8488 35.5112 86.2463 39.5565C88.4037 43.1969 89.5608 47.5183 90.5495 52.061C91.1146 54.657 90.354 57.3641 88.5197 59.286C86.6853 61.2079 84.0166 62.0937 81.3971 61.6502L76.2887 60.7853L74.5787 62.9041C72.5826 65.3774 69.3934 66.366 66.4642 65.6551Z" fill="#222222"/>
</svg>
