<svg width="100" height="100" viewBox="0 0 100 100" fill="none" xmlns="http://www.w3.org/2000/svg">
<rect x="50" y="10.7782" width="55.468" height="55.468" rx="7.5" transform="rotate(45 50 10.7782)" stroke="#222222" stroke-width="11"/>
<path fill-rule="evenodd" clip-rule="evenodd" d="M57.4242 65.999C57.4242 65.2812 54.8644 55.8314 53.4309 50.7476L57.117 49.8505L63.2605 54.0371L66.6394 49.8505L73.7044 51.0467C72.2879 44.5393 70.9516 41.727 66.6394 39.6829C61.7393 43.2835 59.1921 43.7186 53.5351 43.8696L52.6136 41.1782C53.313 40.8018 53.8588 40.5335 54.3439 40.295C55.3547 39.798 56.1013 39.431 57.4242 38.4868C56.4743 35.0208 55.6065 33.6107 53.7382 31.6087H45.4445C43.5762 33.6107 42.7084 35.0208 41.7584 38.4868C43.0813 39.431 43.8279 39.798 44.8388 40.295C45.3238 40.5335 45.8696 40.8018 46.5691 41.1782L45.6476 43.8696C39.9905 43.7186 37.4434 43.2835 32.5432 39.6829C28.2311 41.727 26.8947 44.5393 25.4783 51.0467L32.5432 49.8505L35.9221 54.0371L42.0656 49.8505L45.7517 50.7476C44.3182 55.8314 41.7584 65.2812 41.7584 65.999C42.9713 67.4749 45.6808 68.3681 49.5913 68.3909C53.5019 68.3681 56.2113 67.4749 57.4242 65.999Z" fill="#58A3C2"/>
<path fill-rule="evenodd" clip-rule="evenodd" d="M51.6348 68.2909V31.6087H53.7381C55.6065 33.6107 56.4742 35.0208 57.4242 38.4868C56.1013 39.431 55.3547 39.798 54.3438 40.295C53.8588 40.5335 53.313 40.8018 52.6135 41.1782L53.5351 43.8696C59.1921 43.7186 61.7393 43.2835 66.6394 39.6829C70.9516 41.727 72.2879 44.5393 73.7043 51.0467L66.6394 49.8505L63.2605 54.0371L57.117 49.8505L53.4309 50.7476C54.8644 55.8314 57.4242 65.2812 57.4242 65.999C56.4355 67.2021 54.4523 68.018 51.6348 68.2909Z" fill="#D74A6C"/>
</svg>
